<svg width="300" height="200" viewBox="0 0 300 200" fill="none" xmlns="http://www.w3.org/2000/svg">
<g clip-path="url(#clip0_632_78)">
<path d="M0 0H300V200H0V0Z" fill="white"/>
<path d="M106.356 81.5327C106.933 82.4367 107.464 83.3181 108.051 84.1656C118.651 99.4997 132.821 109.862 150.833 114.856C154.449 115.862 158.121 116.529 161.85 116.969C166.721 117.557 171.602 117.681 176.484 117.433C182.676 117.116 188.79 116.201 194.824 114.789C194.858 114.777 194.892 114.789 194.948 114.822C194.553 114.992 194.168 115.173 193.773 115.342C193.377 115.512 192.971 115.681 192.575 115.839C186.756 118.167 180.744 119.828 174.552 120.845C169.794 121.625 165.014 121.987 160.201 121.806C144.076 121.241 130.504 115.139 119.701 103.071C114.594 97.364 110.65 90.9117 107.418 83.9961C107.057 83.2164 106.718 82.4367 106.368 81.657C106.356 81.6457 106.356 81.6118 106.356 81.5327Z" fill="#1D1819"/>
<path d="M162.02 49C161.026 49.8249 160.054 50.6837 159.206 51.6555C157.85 53.2262 156.901 54.989 156.596 57.0569C156.325 58.8875 156.539 60.6842 157.025 62.4583C157.624 64.6392 158.573 66.6732 159.647 68.662C160.348 69.9728 160.924 71.3288 161.161 72.7978C161.602 75.5211 160.653 77.6342 158.37 79.1597C156.777 80.2219 154.991 80.753 153.127 81.0694C152.856 81.1146 152.585 81.1485 152.268 81.1824C152.336 81.1146 152.37 81.0807 152.404 81.0581C154.777 79.3857 155.613 77.0579 154.833 74.2555C154.472 72.956 153.895 71.7582 153.104 70.6621C151.692 68.6846 150.494 66.5941 149.873 64.2211C148.833 60.1983 149.918 56.7857 152.89 53.9381C154.946 51.9606 157.41 50.6498 160.042 49.6215C160.687 49.3729 161.342 49.1582 162.02 49Z" fill="#1D1819"/>
<path d="M148.98 81.2729C149.308 80.7644 149.567 80.2333 149.658 79.6231C149.816 78.6626 149.567 77.8038 149.048 77.0128C148.584 76.2896 147.997 75.6907 147.296 75.2048C146.302 74.5042 145.364 73.7471 144.595 72.7979C143.567 71.5436 142.912 70.1424 142.957 68.4926C142.98 67.679 143.172 66.888 143.499 66.1422C144.437 63.9726 146.053 62.3793 147.94 61.0007C147.793 61.2606 147.646 61.5092 147.5 61.7691C145.827 64.6732 146.064 67.4304 148.11 70.0633C148.878 71.0577 149.771 71.9504 150.697 72.7979C151.364 73.4081 151.963 74.0974 152.37 74.911C153.037 76.2331 152.969 77.5213 152.133 78.7417C151.33 79.8943 150.223 80.6627 148.98 81.2729Z" fill="#1D1819"/>
<path d="M104.932 87.7817C106.356 91.5784 108.243 95.1266 110.492 98.494C118.458 110.416 129.329 118.439 142.979 122.744C143.081 122.778 143.172 122.812 143.273 122.868C142.708 122.846 142.155 122.721 141.601 122.597C133.002 120.642 125.351 116.811 118.797 110.868C112.808 105.444 108.627 98.8217 105.927 91.2281C105.531 90.1094 105.158 88.9908 104.853 87.8495C104.842 87.7704 104.876 87.7591 104.932 87.7817Z" fill="#1D1819"/>
<path d="M104.932 87.7817C104.91 87.8043 104.887 87.8269 104.865 87.8495C104.718 87.5896 104.695 87.2845 104.627 87.002C104.763 87.2393 104.865 87.4992 104.932 87.7817Z" fill="#1D1819"/>
<path fill-rule="evenodd" clip-rule="evenodd" d="M165.376 85.1035H146.649C140.412 85.1035 134.165 85.1035 127.928 85.1261C127.702 85.1261 127.476 85.1261 127.261 85.16C126.515 85.273 126.165 85.6798 126.165 86.4256C126.165 89.7365 126.165 93.0361 126.176 96.3357C126.176 97.9516 126.436 99.5336 126.854 101.093C126.9 101.285 127.001 101.421 127.159 101.534C134.346 106.924 142.256 110.879 150.889 113.387C151.07 113.433 151.228 113.455 151.409 113.421C152.799 113.161 154.166 112.822 155.5 112.37C155.642 112.321 155.784 112.272 155.926 112.223C157.052 111.837 158.179 111.449 159.172 110.777C161.647 109.082 163.545 106.845 165.014 104.246C165.139 104.02 165.274 103.941 165.534 103.941C166.331 103.958 167.12 103.955 167.914 103.953C168.178 103.953 168.444 103.952 168.71 103.952C168.909 103.949 169.108 103.95 169.306 103.952C169.78 103.955 170.251 103.959 170.721 103.895C174.902 103.308 177.625 99.3641 176.676 95.2509C176.009 92.3807 173.523 90.1772 170.585 89.8721C169.894 89.7952 169.197 89.8073 168.501 89.8193C168.175 89.8249 167.848 89.8305 167.523 89.8269C167.274 89.8269 167.218 89.7591 167.218 89.5105C167.226 88.8179 167.223 88.1302 167.221 87.4409C167.219 87.0957 167.218 86.75 167.218 86.403C167.218 85.838 166.981 85.4764 166.45 85.2617C166.099 85.1261 165.738 85.1035 165.376 85.1035ZM167.207 92.7649V94.9797C167.297 96.7312 167.06 98.72 166.382 100.664C166.303 100.901 166.382 100.935 166.596 100.935C167.061 100.93 167.524 100.931 167.987 100.933C168.604 100.935 169.22 100.936 169.84 100.924C171.987 100.878 173.783 99.2624 173.975 97.2397C174.19 94.991 172.834 93.07 170.653 92.618C169.93 92.4673 169.191 92.4874 168.455 92.5075C168.086 92.5176 167.719 92.5276 167.354 92.5163C167.192 92.5068 167.198 92.6091 167.204 92.7091C167.206 92.7281 167.207 92.7469 167.207 92.7649Z" fill="#1D1819"/>
<path d="M101 125.772C101.791 125.761 102.571 125.772 103.362 125.75C103.588 125.75 103.599 125.851 103.599 126.032C103.599 127.241 103.599 128.45 103.599 129.659C103.599 130.812 103.599 131.965 103.599 133.151C103.746 133.083 103.791 132.959 103.848 132.869C105.396 130.586 106.944 128.303 108.481 126.009C108.605 125.829 108.729 125.738 108.955 125.75C109.701 125.772 110.458 125.761 111.215 125.761C111.227 125.942 111.102 126.032 111.034 126.134C109.769 127.998 108.515 129.874 107.238 131.727C107.068 131.976 107.046 132.145 107.226 132.405C108.628 134.541 110.017 136.688 111.419 138.835C111.486 138.937 111.543 139.027 111.633 139.185C110.978 139.185 110.379 139.185 109.78 139.185C109.385 139.185 108.91 139.298 108.605 139.129C108.311 138.971 108.176 138.507 107.972 138.18C107.147 136.857 106.322 135.535 105.486 134.213C105.475 134.191 105.452 134.179 105.407 134.134C104.944 134.756 104.503 135.377 104.017 135.976C103.701 136.36 103.554 136.756 103.588 137.253C103.633 137.807 103.588 138.36 103.599 138.914C103.61 139.129 103.543 139.197 103.328 139.197C102.548 139.185 101.78 139.197 101 139.197C101 134.71 101 130.247 101 125.772Z" fill="#1D1819"/>
<path d="M171.252 132.643C170.992 133.456 170.766 134.179 170.54 134.903C170.122 136.236 169.693 137.558 169.286 138.891C169.218 139.106 169.139 139.185 168.902 139.185C168.405 139.163 167.919 139.174 167.421 139.185C167.241 139.185 167.162 139.151 167.105 138.959C166.156 135.524 165.195 132.1 164.224 128.665C164.156 128.428 164.235 128.416 164.427 128.416C165.071 128.428 165.715 128.439 166.371 128.405C166.71 128.382 166.8 128.518 166.868 128.812C167.331 130.902 167.806 132.993 168.28 135.095C168.292 135.162 168.314 135.219 168.359 135.377C168.698 134.179 169.015 133.083 169.331 131.987C169.568 131.162 169.806 130.337 170.032 129.524C170.1 129.286 170.19 129.06 170.348 128.857C170.857 128.213 171.84 128.281 172.235 129.004C172.597 129.682 172.721 130.45 172.936 131.174C173.32 132.462 173.682 133.761 174.055 135.061C174.077 135.151 174.077 135.253 174.179 135.321C174.676 133.117 175.185 130.914 175.67 128.71C175.727 128.473 175.817 128.416 176.043 128.416C176.699 128.428 177.354 128.428 178.021 128.416C178.247 128.416 178.326 128.428 178.247 128.699C177.286 132.1 176.348 135.513 175.399 138.925C175.354 139.106 175.286 139.197 175.072 139.185C174.563 139.163 174.066 139.163 173.557 139.185C173.343 139.197 173.275 139.106 173.218 138.925C172.574 136.869 171.93 134.812 171.252 132.643Z" fill="#1D1819"/>
<path d="M147.206 133.852C148.065 132.563 148.935 131.287 149.793 129.998C150.008 129.682 150.223 129.354 150.438 129.038C150.517 128.925 150.596 128.857 150.743 128.857C151.579 128.868 152.404 128.857 153.24 128.857C153.285 129.004 153.172 129.06 153.116 129.14C152.087 130.552 151.059 131.965 150.019 133.377C149.85 133.603 149.839 133.739 150.019 133.976C151.262 135.581 152.483 137.208 153.703 138.824C153.782 138.925 153.85 139.027 153.963 139.174C152.98 139.174 152.053 139.174 151.116 139.174C150.969 139.174 150.935 139.038 150.867 138.948C150.053 137.863 149.251 136.778 148.449 135.705C148.37 135.603 148.291 135.501 148.2 135.377C147.85 135.874 147.522 136.349 147.183 136.824C147.104 136.937 147.127 137.05 147.127 137.163C147.127 137.739 147.115 138.315 147.127 138.891C147.138 139.117 147.081 139.197 146.844 139.185C146.223 139.163 145.601 139.163 144.98 139.185C144.731 139.197 144.675 139.117 144.675 138.869C144.686 136.066 144.675 133.253 144.675 130.45C144.675 128.744 144.675 127.049 144.663 125.343C144.663 125.094 144.708 124.992 144.991 125.004C145.556 125.026 146.121 125.026 146.686 125.004C147.025 124.981 147.138 125.06 147.127 125.433C147.104 128.134 147.115 130.835 147.115 133.535C147.115 133.637 147.115 133.739 147.115 133.84C147.161 133.84 147.183 133.852 147.206 133.852Z" fill="#1D1819"/>
<path d="M123.306 133.818C123.306 132.134 123.318 130.462 123.295 128.778C123.295 128.473 123.385 128.394 123.668 128.416C124.041 128.439 124.425 128.439 124.798 128.416C125.035 128.405 125.193 128.462 125.272 128.71C125.352 128.959 125.498 129.173 125.578 129.422C125.657 129.659 125.758 129.693 125.984 129.58C126.719 129.219 127.487 128.914 128.21 128.529C128.775 128.224 129.329 128.269 129.86 128.507C131.058 129.027 131.668 129.987 131.815 131.264C131.883 131.897 131.86 132.53 131.86 133.162C131.86 135.049 131.86 136.948 131.872 138.835C131.872 139.117 131.793 139.185 131.521 139.174C130.945 139.151 130.369 139.151 129.792 139.174C129.499 139.185 129.397 139.129 129.408 138.801C129.431 136.699 129.42 134.597 129.42 132.484C129.42 132.224 129.408 131.965 129.363 131.716C129.216 130.891 128.47 130.484 127.691 130.801C127.148 131.027 126.617 131.264 126.063 131.467C125.826 131.558 125.758 131.682 125.758 131.931C125.77 134.225 125.758 136.518 125.77 138.801C125.77 139.095 125.691 139.174 125.408 139.163C124.832 139.14 124.255 139.14 123.679 139.163C123.397 139.174 123.306 139.106 123.306 138.801C123.318 137.151 123.306 135.49 123.306 133.818Z" fill="#1D1819"/>
<path d="M195.163 133.66C195.163 135.388 195.152 137.117 195.174 138.846C195.174 139.129 195.095 139.197 194.824 139.185C194.18 139.163 193.536 139.163 192.88 139.185C192.609 139.197 192.53 139.117 192.53 138.846C192.541 135.388 192.53 131.942 192.541 128.484C192.541 128.19 192.485 128.089 192.168 128.1C191.197 128.123 190.214 128.1 189.242 128.111C189.004 128.111 188.948 128.043 188.948 127.817C188.959 127.23 188.959 126.642 188.948 126.055C188.948 125.851 188.982 125.772 189.219 125.772C192.327 125.783 195.423 125.783 198.53 125.772C198.711 125.772 198.768 125.817 198.768 126.009C198.756 126.62 198.756 127.23 198.768 127.84C198.768 128.055 198.711 128.123 198.496 128.111C197.502 128.1 196.496 128.123 195.502 128.1C195.208 128.089 195.163 128.19 195.163 128.45C195.163 130.179 195.163 131.919 195.163 133.66Z" fill="#1D1819"/>
<path d="M184.281 132.439C184.281 130.326 184.292 128.213 184.27 126.089C184.27 125.806 184.349 125.738 184.62 125.75C185.287 125.772 185.965 125.761 186.631 125.75C186.846 125.75 186.903 125.806 186.903 126.021C186.891 130.315 186.891 134.597 186.903 138.891C186.903 139.129 186.835 139.185 186.609 139.174C185.942 139.163 185.264 139.151 184.597 139.174C184.338 139.185 184.27 139.117 184.27 138.846C184.292 136.722 184.281 134.575 184.281 132.439Z" fill="#1D1819"/>
<path fill-rule="evenodd" clip-rule="evenodd" d="M139.197 137.17C139.342 137.093 139.487 137.015 139.635 136.937C139.621 137.17 139.61 137.398 139.598 137.621C139.572 138.147 139.547 138.649 139.499 139.14C139.431 139.784 139.081 140.123 138.448 140.247C137.94 140.338 137.443 140.304 136.945 140.168C136.606 140.078 136.358 139.886 136.324 139.502C136.301 139.3 136.19 139.309 136.056 139.321L136.053 139.321C135.906 139.329 135.759 139.339 135.612 139.348C135.171 139.375 134.73 139.403 134.29 139.411C134.007 139.423 133.996 139.536 134.019 139.762C134.143 140.858 134.753 141.592 135.77 141.976C137.024 142.451 138.324 142.496 139.612 142.146C141.025 141.762 141.872 140.711 141.963 139.242C141.996 138.632 141.996 138.021 141.996 137.411C142.002 135.959 142.002 134.504 142.002 133.048C142.002 131.592 142.002 130.134 142.008 128.676C142.008 128.394 141.951 128.315 141.657 128.349C141.318 128.394 140.983 128.409 140.646 128.424C140.479 128.432 140.312 128.439 140.143 128.45C139.509 128.497 138.874 128.492 138.24 128.488C137.643 128.484 137.045 128.48 136.448 128.518C134.945 128.608 133.973 129.399 133.646 130.88C133.307 132.462 133.284 134.055 133.601 135.637C133.94 137.355 135.047 138.27 136.719 138.338C136.923 138.349 137.104 138.304 137.284 138.202C137.906 137.859 138.535 137.523 139.197 137.17ZM139.564 133.377C139.566 133.181 139.567 132.985 139.567 132.789C139.567 132.637 139.566 132.485 139.566 132.332C139.563 131.874 139.561 131.414 139.578 130.948C139.578 130.744 139.522 130.688 139.318 130.688C138.995 130.701 138.673 130.699 138.35 130.697C138.108 130.696 137.865 130.694 137.623 130.699C136.776 130.71 136.267 131.094 136.053 131.897C135.827 132.733 135.781 133.592 135.928 134.451C136.12 135.558 137.16 136.055 138.154 135.535C138.286 135.468 138.418 135.398 138.55 135.329C138.814 135.191 139.077 135.053 139.341 134.925C139.499 134.846 139.567 134.744 139.567 134.552C139.559 134.161 139.562 133.769 139.564 133.377Z" fill="#1D1819"/>
<path fill-rule="evenodd" clip-rule="evenodd" d="M121.317 136.383C121.498 135.558 121.532 134.71 121.566 133.829C121.555 133.117 121.521 132.36 121.374 131.626C121.035 129.829 120.052 128.778 118.368 128.416C117.69 128.269 116.99 128.281 116.3 128.326C114.447 128.462 113.204 129.479 112.775 131.275C112.357 133.015 112.39 134.767 112.797 136.507C113.148 137.965 114.029 138.948 115.521 139.287C116.413 139.49 117.306 139.502 118.21 139.355C119.939 139.084 120.933 138.055 121.317 136.383ZM118.978 135.671C119.125 135.061 119.125 134.439 119.114 133.818C119.125 133.298 119.125 132.778 119.057 132.27C118.978 131.705 118.82 131.185 118.334 130.835C117.193 130.021 115.487 130.552 115.148 131.908C114.82 133.208 114.831 134.541 115.193 135.84C115.464 136.824 116.176 137.276 117.17 137.23C118.142 137.174 118.752 136.665 118.978 135.671Z" fill="#1D1819"/>
<path fill-rule="evenodd" clip-rule="evenodd" d="M163.263 136.405C163.455 135.558 163.489 134.699 163.512 133.795C163.5 133.106 163.478 132.371 163.331 131.648C162.992 129.851 162.031 128.789 160.336 128.428C159.636 128.269 158.913 128.269 158.201 128.337C156.336 128.507 155.172 129.49 154.732 131.309C154.313 133.049 154.336 134.801 154.754 136.541C155.116 138.033 156.042 139.004 157.59 139.321C158.404 139.479 159.218 139.502 160.043 139.377C161.828 139.117 162.856 138.157 163.263 136.405ZM160.935 135.66C161.082 135.049 161.082 134.428 161.071 133.806C161.082 133.309 161.082 132.801 161.014 132.304C160.935 131.727 160.777 131.196 160.28 130.835C159.139 130.01 157.421 130.552 157.093 131.908C156.766 133.208 156.777 134.541 157.138 135.84C157.421 136.812 158.133 137.276 159.127 137.219C160.11 137.163 160.709 136.643 160.935 135.66Z" fill="#1D1819"/>
<path d="M199.581 150.463C199.48 150.463 199.367 150.463 199.265 150.463C198.722 150.463 198.722 150.463 198.564 149.954C198.496 149.921 198.463 149.977 198.429 150.022C197.92 150.565 197.016 150.723 196.361 150.373C195.977 150.169 195.762 149.83 195.717 149.423C195.604 148.395 195.694 147.355 195.671 146.327C195.671 146.203 195.728 146.158 195.841 146.169C195.852 146.169 195.864 146.169 195.875 146.169C196.835 146.09 196.835 146.09 196.835 147.039C196.835 147.615 196.824 148.192 196.835 148.768C196.847 149.322 197.061 149.593 197.479 149.627C197.954 149.661 198.293 149.401 198.383 148.881C198.519 148.101 198.44 147.31 198.44 146.519C198.44 146.225 198.519 146.124 198.813 146.158C199.073 146.192 199.333 146.169 199.581 146.18C199.581 147.593 199.581 149.028 199.581 150.463Z" fill="#1D1819"/>
<path d="M168.8 148.033C169.263 147.457 169.772 146.949 170.235 146.406C170.405 146.214 170.574 146.112 170.834 146.135C171.128 146.158 171.41 146.135 171.795 146.135C171.41 146.564 171.083 146.926 170.755 147.299C170.54 147.536 170.19 147.774 170.179 148.022C170.167 148.271 170.506 148.531 170.687 148.791C171.083 149.333 171.478 149.864 171.919 150.452C171.467 150.452 171.06 150.452 170.653 150.452C170.518 150.452 170.484 150.339 170.427 150.26C170.133 149.853 169.851 149.435 169.546 149.028C169.467 148.926 169.422 148.689 169.275 148.779C169.094 148.881 168.834 148.971 168.834 149.276C168.834 149.593 168.823 149.909 168.834 150.226C168.845 150.406 168.8 150.463 168.608 150.463C167.659 150.486 167.659 150.497 167.659 149.57C167.659 147.977 167.67 146.372 167.647 144.779C167.647 144.519 167.704 144.44 167.975 144.44C168.834 144.451 168.834 144.44 168.834 145.288C168.823 146.203 168.868 147.107 168.8 148.033Z" fill="#1D1819"/>
<path d="M178.281 146.779C178.789 146.124 179.354 145.999 179.998 146.079C180.642 146.158 181.094 146.553 181.162 147.197C181.275 148.226 181.185 149.265 181.207 150.293C181.207 150.418 181.162 150.463 181.038 150.452C181.015 150.452 180.993 150.452 180.97 150.452C180.032 150.497 180.032 150.497 180.032 149.548C180.032 148.983 180.044 148.418 180.032 147.853C180.021 147.288 179.818 147.016 179.411 146.983C178.891 146.949 178.575 147.186 178.484 147.728C178.349 148.519 178.428 149.322 178.428 150.113C178.428 150.373 178.371 150.474 178.1 150.44C177.829 150.406 177.456 150.565 177.286 150.373C177.151 150.214 177.252 149.853 177.241 149.582C177.241 148.542 177.252 147.491 177.23 146.451C177.23 146.169 177.32 146.124 177.58 146.112C178.01 146.112 178.315 146.158 178.281 146.779Z" fill="#1D1819"/>
<path d="M193.197 146.892C193.547 146.361 193.965 146.045 194.575 146.056C194.801 146.067 194.971 146.09 194.88 146.384C194.88 146.395 194.88 146.406 194.88 146.418C194.869 146.644 194.914 146.903 194.813 147.073C194.7 147.276 194.406 147.118 194.202 147.163C193.615 147.288 193.31 147.627 193.298 148.237C193.287 148.881 193.287 149.525 193.298 150.169C193.298 150.373 193.265 150.452 193.039 150.452C192.123 150.463 192.123 150.463 192.123 149.559C192.123 148.531 192.135 147.491 192.112 146.463C192.112 146.169 192.202 146.112 192.462 146.124C192.993 146.158 192.993 146.135 193.197 146.892Z" fill="#1D1819"/>
<path fill-rule="evenodd" clip-rule="evenodd" d="M182.757 150.466C183.112 150.481 183.461 150.495 183.513 149.954C183.545 149.982 183.573 150.001 183.596 150.018C183.621 150.035 183.642 150.05 183.66 150.067C184.552 150.892 185.818 150.632 186.225 149.491C186.518 148.678 186.518 147.83 186.191 147.016C185.953 146.429 185.524 146.09 184.88 146.056C184.36 146.033 183.931 146.214 183.592 146.689V145.333C183.592 144.86 183.592 144.626 183.475 144.515C183.357 144.403 183.119 144.417 182.643 144.44C182.462 144.451 182.428 144.508 182.428 144.666C182.439 146.519 182.439 148.372 182.428 150.226C182.428 150.418 182.484 150.463 182.665 150.463C182.696 150.464 182.727 150.465 182.757 150.466ZM185.083 149.096C185.208 148.836 185.219 148.553 185.219 148.271C185.219 147.988 185.208 147.717 185.072 147.446C184.925 147.118 184.677 146.971 184.315 146.994C183.965 147.028 183.739 147.209 183.66 147.536C183.524 148.033 183.535 148.531 183.671 149.028C183.773 149.378 184.01 149.548 184.371 149.57C184.733 149.593 184.948 149.401 185.083 149.096Z" fill="#1D1819"/>
<path fill-rule="evenodd" clip-rule="evenodd" d="M158.191 146.991C158.19 147.203 158.189 147.415 158.189 147.627C158.189 147.753 158.189 147.88 158.188 148.007C158.187 148.516 158.185 149.03 158.212 149.536C158.212 149.621 158.201 149.717 158.189 149.813C158.161 150.05 158.132 150.294 158.268 150.406C158.387 150.503 158.597 150.487 158.814 150.472C158.928 150.464 159.044 150.455 159.15 150.463C159.353 150.474 159.398 150.406 159.398 150.203C159.393 149.954 159.393 149.709 159.393 149.463C159.393 149.217 159.393 148.971 159.387 148.723C159.387 148.508 159.432 148.429 159.658 148.44C159.907 148.452 160.167 148.44 160.427 148.406C161.421 148.293 162.031 147.638 162.065 146.666C162.099 145.638 161.613 145.028 160.551 144.858C160.132 144.796 159.71 144.805 159.288 144.815C159.015 144.82 158.743 144.826 158.472 144.813C158.246 144.802 158.178 144.858 158.178 145.095C158.195 145.722 158.193 146.356 158.191 146.991ZM159.373 146.572C159.374 146.602 159.376 146.639 159.376 146.689C159.402 146.77 159.387 146.875 159.371 146.983C159.346 147.159 159.319 147.345 159.466 147.457C159.658 147.593 160.009 147.491 160.28 147.412C160.709 147.288 160.935 146.881 160.845 146.418C160.743 145.898 160.314 145.66 159.545 145.807C159.309 145.852 159.338 146.026 159.368 146.205C159.383 146.3 159.399 146.396 159.376 146.474C159.369 146.501 159.37 146.528 159.373 146.572Z" fill="#1D1819"/>
<path fill-rule="evenodd" clip-rule="evenodd" d="M187.976 150.463C188.699 150.632 189.355 150.519 189.863 149.853C190.141 150.497 190.146 150.497 190.694 150.454L190.722 150.452C190.88 150.452 190.914 150.395 190.914 150.248C190.914 150.005 190.915 149.762 190.916 149.52C190.918 148.795 190.92 148.075 190.903 147.355C190.88 146.768 190.541 146.327 189.976 146.158C189.185 145.92 188.417 146.011 187.671 146.338C187.657 146.345 187.641 146.35 187.626 146.355C187.556 146.38 187.487 146.404 187.524 146.497C187.548 146.551 187.571 146.607 187.595 146.663C187.668 146.842 187.743 147.023 187.863 147.152C187.948 147.237 188.065 147.174 188.181 147.111C188.235 147.082 188.288 147.053 188.338 147.039C188.643 146.949 188.959 146.881 189.276 146.926C189.603 146.971 189.807 147.254 189.762 147.593C189.728 147.835 189.571 147.805 189.427 147.778C189.377 147.769 189.328 147.759 189.287 147.762C189.261 147.764 189.234 147.766 189.208 147.767C188.703 147.799 188.201 147.83 187.739 148.056C187.264 148.305 187.05 148.734 187.106 149.356C187.163 149.932 187.456 150.339 187.976 150.463ZM189.762 148.904C189.818 148.474 189.807 148.452 189.298 148.474C189.095 148.474 188.846 148.485 188.609 148.621C188.338 148.779 188.259 149.028 188.315 149.31C188.383 149.604 188.62 149.672 188.88 149.672C189.366 149.672 189.705 149.378 189.762 148.904Z" fill="#1D1819"/>
<path fill-rule="evenodd" clip-rule="evenodd" d="M166.458 149.591C166.46 149.507 166.461 149.421 166.461 149.333C166.325 149.389 166.212 149.435 166.111 149.457C165.67 149.604 165.207 149.706 164.732 149.615C164.337 149.548 164.065 149.254 163.986 148.87C163.941 148.655 163.986 148.576 164.224 148.587C164.623 148.595 165.022 148.592 165.421 148.59C165.621 148.588 165.821 148.587 166.02 148.587C166.389 148.587 166.576 148.587 166.663 148.494C166.752 148.399 166.738 148.207 166.71 147.819C166.63 146.892 166.156 146.293 165.354 146.101C164.031 145.796 162.992 146.485 162.788 147.819C162.743 148.135 162.743 148.452 162.788 148.768C162.89 149.48 163.207 150.045 163.896 150.327C164.687 150.655 165.478 150.587 166.269 150.316C166.393 150.282 166.472 150.214 166.461 150.067C166.453 149.911 166.456 149.754 166.458 149.591ZM164.621 147.794C164.683 147.795 164.747 147.796 164.811 147.796C164.872 147.796 164.933 147.795 164.994 147.794C165.112 147.791 165.226 147.789 165.331 147.796C165.613 147.83 165.625 147.683 165.568 147.48C165.478 147.107 165.184 146.881 164.8 146.881C164.404 146.881 164.144 147.084 164.02 147.468C163.941 147.694 163.952 147.83 164.246 147.796C164.374 147.789 164.496 147.791 164.621 147.794Z" fill="#1D1819"/>
<path fill-rule="evenodd" clip-rule="evenodd" d="M173.094 150.463C173.829 150.655 174.495 150.519 175.004 149.864C175.286 150.508 175.286 150.508 175.885 150.474C176.009 150.463 176.066 150.44 176.066 150.293C176.062 149.959 176.061 149.625 176.06 149.292C176.057 148.626 176.055 147.962 176.032 147.299C176.021 146.711 175.659 146.327 175.094 146.169C174.314 145.943 173.557 146.045 172.823 146.35C172.653 146.418 172.665 146.485 172.732 146.632C172.862 146.908 172.924 147.047 173.028 147.095C173.133 147.144 173.28 147.101 173.58 147.016C173.862 146.937 174.156 146.892 174.45 146.937C174.755 146.983 174.925 147.254 174.902 147.593C174.877 147.861 174.715 147.824 174.573 147.792C174.523 147.781 174.477 147.771 174.439 147.774C174.392 147.777 174.345 147.779 174.298 147.782C173.812 147.811 173.321 147.841 172.868 148.067C172.416 148.293 172.201 148.734 172.247 149.299C172.292 149.921 172.574 150.327 173.094 150.463ZM174.902 148.881C174.925 148.576 174.902 148.35 174.552 148.474C174.258 148.474 174.021 148.485 173.783 148.598C173.501 148.745 173.399 148.994 173.456 149.299C173.512 149.615 173.772 149.672 174.043 149.672C174.529 149.672 174.857 149.356 174.902 148.881Z" fill="#1D1819"/>
</g>
<defs>
<clipPath id="clip0_632_78">
<rect width="300" height="200" fill="white"/>
</clipPath>
</defs>
</svg>
