<svg width="512" height="512" viewBox="0 0 512 512" fill="none" xmlns="http://www.w3.org/2000/svg">
<g clip-path="url(#clip0_1_107)">
<rect width="512" height="512" rx="256" fill="#FFE6E6"/>
<path d="M53.0725 210.943C55.7641 215.165 58.2446 219.282 60.989 223.24C110.493 294.858 176.675 343.254 260.801 366.581C277.69 371.278 294.842 374.392 312.259 376.45C335.005 379.195 357.805 379.775 380.604 378.614C409.526 377.136 438.078 372.861 466.261 366.264C466.419 366.212 466.577 366.264 466.841 366.423C464.994 367.214 463.2 368.059 461.352 368.85C459.505 369.642 457.605 370.434 455.758 371.173C428.578 382.045 400.501 389.803 371.579 394.553C349.361 398.194 327.036 399.883 304.553 399.039C229.241 396.4 165.856 367.9 115.402 311.535C91.5467 284.883 73.1276 254.748 58.0335 222.449C56.3447 218.807 54.7614 215.165 53.1253 211.524C53.0725 211.471 53.0725 211.313 53.0725 210.943Z" fill="#1D1819"/>
<path d="M313.052 59C308.408 62.8527 303.869 66.8637 299.911 71.4025C293.578 78.7384 289.144 86.9715 287.719 96.6296C286.453 105.179 287.456 113.571 289.725 121.857C292.522 132.043 296.955 141.542 301.969 150.831C305.241 156.953 307.933 163.286 309.041 170.147C311.099 182.866 306.666 192.736 296.005 199.86C288.564 204.821 280.225 207.302 271.517 208.78C270.25 208.991 268.984 209.149 267.506 209.307C267.823 208.991 267.981 208.832 268.139 208.727C279.222 200.916 283.128 190.044 279.486 176.955C277.797 170.886 275.106 165.292 271.411 160.172C264.814 150.937 259.22 141.173 256.317 130.09C251.462 111.301 256.528 95.363 270.409 82.0633C280.014 72.8274 291.519 66.7054 303.816 61.9027C306.825 60.7416 309.886 59.7389 313.052 59Z" fill="#1D1819"/>
<path d="M252.148 209.73C253.678 207.355 254.892 204.874 255.314 202.024C256.053 197.538 254.892 193.527 252.464 189.833C250.3 186.455 247.556 183.658 244.284 181.389C239.64 178.117 235.259 174.581 231.67 170.147C226.868 164.289 223.807 157.745 224.018 150.04C224.123 146.24 225.02 142.545 226.551 139.062C230.931 128.929 238.478 121.487 247.292 115.049C246.606 116.263 245.92 117.424 245.234 118.638C237.423 132.201 238.531 145.079 248.084 157.376C251.673 162.02 255.842 166.189 260.17 170.147C263.283 172.997 266.081 176.217 267.981 180.017C271.094 186.191 270.778 192.208 266.872 197.908C263.125 203.291 257.953 206.88 252.148 209.73Z" fill="#1D1819"/>
<path d="M46.4263 240.129C53.0761 257.862 61.8898 274.434 72.3923 290.161C109.6 345.84 160.37 383.312 224.124 403.419C224.599 403.578 225.022 403.736 225.497 404C222.858 403.894 220.272 403.314 217.686 402.733C177.523 393.603 141.793 375.712 111.183 347.951C83.2114 322.619 63.6842 291.691 51.0706 256.226C49.2234 251.001 47.4818 245.776 46.0568 240.445C46.0041 240.076 46.1624 240.023 46.4263 240.129Z" fill="#1D1819"/>
<path d="M46.425 240.129C46.3194 240.234 46.2139 240.34 46.1083 240.445C45.4222 239.231 45.3167 237.807 45 236.487C45.6333 237.595 46.1083 238.809 46.425 240.129Z" fill="#1D1819"/>
<path fill-rule="evenodd" clip-rule="evenodd" d="M328.725 227.621H241.261C212.133 227.621 182.952 227.621 153.824 227.727C152.768 227.727 151.713 227.727 150.71 227.885C147.227 228.413 145.59 230.313 145.59 233.796C145.59 249.259 145.59 264.67 145.643 280.081C145.643 287.628 146.857 295.017 148.81 302.3C149.021 303.197 149.496 303.83 150.235 304.358C183.801 329.532 220.744 348.004 261.065 359.72C261.91 359.932 262.649 360.037 263.493 359.879C269.985 358.665 276.371 357.082 282.598 354.971C283.26 354.74 283.924 354.512 284.588 354.284C289.847 352.477 295.111 350.669 299.751 347.529C311.309 339.613 320.175 329.163 327.036 317.024C327.616 315.969 328.25 315.599 329.464 315.599C333.183 315.679 336.872 315.669 340.576 315.659C341.813 315.655 343.052 315.652 344.294 315.652C345.226 315.637 346.154 315.644 347.078 315.651C349.294 315.669 351.491 315.686 353.688 315.388C373.215 312.644 385.935 294.225 381.501 275.014C378.387 261.609 366.777 251.318 353.055 249.893C349.824 249.534 346.568 249.59 343.321 249.646C341.795 249.672 340.271 249.698 338.752 249.682C337.591 249.682 337.327 249.365 337.327 248.204C337.362 244.969 337.351 241.757 337.339 238.538C337.333 236.925 337.327 235.311 337.327 233.69C337.327 231.051 336.219 229.363 333.739 228.36C332.103 227.727 330.414 227.621 328.725 227.621ZM337.275 263.403V273.748C337.697 281.928 336.589 291.217 333.422 300.294C333.052 301.402 333.422 301.561 334.425 301.561C336.596 301.538 338.758 301.545 340.919 301.551C343.799 301.56 346.677 301.568 349.572 301.508C359.599 301.297 367.99 293.75 368.888 284.303C369.89 273.8 363.557 264.828 353.371 262.717C349.993 262.013 346.544 262.108 343.103 262.201C341.383 262.248 339.666 262.295 337.961 262.242C337.206 262.198 337.235 262.676 337.264 263.143C337.269 263.231 337.275 263.319 337.275 263.403Z" fill="#30D475"/>
</g>
<defs>
<clipPath id="clip0_1_107">
<rect width="512" height="512" fill="white"/>
</clipPath>
</defs>
</svg>
