<?xml version="1.0" encoding="utf-8"?>
<!-- Generator: Adobe Illustrator 23.0.3, SVG Export Plug-In . SVG Version: 6.00 Build 0)  -->
<svg version="1.2" baseProfile="tiny" id="Layer_1" xmlns="http://www.w3.org/2000/svg" xmlns:xlink="http://www.w3.org/1999/xlink"
	 x="0px" y="0px" viewBox="0 0 1000 1000" xml:space="preserve">
<path fill="#1D1819" d="M63.8,730.1c7-0.1,13.9,0,20.9-0.2c2,0,2.1,0.9,2.1,2.5c0,10.7,0,21.4,0,32.1c0,10.2,0,20.4,0,30.9
	c1.3-0.6,1.7-1.7,2.2-2.5c13.7-20.2,27.4-40.4,41-60.7c1.1-1.6,2.2-2.4,4.2-2.3c6.6,0.2,13.3,0.1,20,0.1c0.1,1.6-1,2.4-1.6,3.3
	c-11.2,16.5-22.3,33.1-33.6,49.5c-1.5,2.2-1.7,3.7-0.1,6c12.4,18.9,24.7,37.9,37.1,56.9c0.6,0.9,1.1,1.7,1.9,3.1
	c-5.8,0-11.1,0-16.4,0c-3.5,0-7.7,1-10.4-0.5c-2.6-1.4-3.8-5.5-5.6-8.4c-7.3-11.7-14.6-23.4-22-35.1c-0.1-0.2-0.3-0.3-0.7-0.7
	c-4.1,5.5-8,11-12.3,16.3c-2.8,3.4-4.1,6.9-3.8,11.3c0.4,4.9,0,9.8,0.1,14.7c0.1,1.9-0.5,2.5-2.4,2.5c-6.9-0.1-13.7,0-20.6,0
	C63.8,809.2,63.8,769.7,63.8,730.1z"/>
<path fill="#1D1819" d="M936.2,948.6c-0.9,0-1.9,0-2.8,0c-4.8,0-4.8,0-6.2-4.5c-0.6-0.3-0.9,0.2-1.2,0.6c-4.5,4.8-12.5,6.2-18.3,3.1
	c-3.4-1.8-5.3-4.8-5.7-8.4c-1-9.1-0.2-18.3-0.4-27.4c0-1.1,0.5-1.5,1.5-1.4c0.1,0,0.2,0,0.3,0c8.5-0.7,8.5-0.7,8.5,7.7
	c0,5.1-0.1,10.2,0,15.3c0.1,4.9,2,7.3,5.7,7.6c4.2,0.3,7.2-2,8-6.6c1.2-6.9,0.5-13.9,0.5-20.9c0-2.6,0.7-3.5,3.3-3.2
	c2.3,0.3,4.6,0.1,6.8,0.2C936.2,923.2,936.2,935.9,936.2,948.6z"/>
<path fill="#E52129" d="M467.8,370.2c55.2,0,110.4,0,165.7,0c3.2,0,6.4,0.2,9.5,1.4c4.7,1.9,6.8,5.1,6.8,10.1c0,9.2,0.1,18.3,0,27.5
	c0,2.2,0.5,2.8,2.7,2.8c9,0.1,18.1-0.6,27.1,0.4c26,2.7,48,22.2,53.9,47.6c8.4,36.4-15.7,71.3-52.7,76.5c-5.9,0.8-11.8,0.4-17.8,0.5
	c-9.4,0-18.7,0.1-28.1-0.1c-2.3,0-3.5,0.7-4.6,2.7c-13,23-29.8,42.8-51.7,57.8c-9.9,6.7-21.3,10.2-32.5,14.1
	c-11.8,4-23.9,7-36.2,9.3c-1.6,0.3-3,0.1-4.6-0.3c-76.4-22.2-146.4-57.2-210-104.9c-1.4-1-2.3-2.2-2.7-3.9c-3.7-13.8-6-27.8-6-42.1
	c-0.1-29.2-0.1-58.4-0.1-87.7c0-6.6,3.1-10.2,9.7-11.2c1.9-0.3,3.9-0.3,5.9-0.3C357.3,370.2,412.6,370.2,467.8,370.2z"/>
<path fill="#1D1819" d="M111.2,338.6c5.1,8,9.8,15.8,15,23.3C220,497.6,345.4,589.3,504.8,633.5c32,8.9,64.5,14.8,97.5,18.7
	c43.1,5.2,86.3,6.3,129.5,4.1c54.8-2.8,108.9-10.9,162.3-23.4c0.3-0.1,0.6,0,1.1,0.3c-3.5,1.5-6.9,3.1-10.4,4.6
	c-3.5,1.5-7.1,3-10.6,4.4c-51.5,20.6-104.7,35.3-159.5,44.3c-42.1,6.9-84.4,10.1-127,8.5C445,690,324.9,636,229.3,529.2
	c-45.2-50.5-80.1-107.6-108.7-168.8c-3.2-6.9-6.2-13.8-9.3-20.7C111.2,339.6,111.2,339.3,111.2,338.6z"/>
<path fill="#1D1819" d="M603.8,50.7c-8.8,7.3-17.4,14.9-24.9,23.5c-12,13.9-20.4,29.5-23.1,47.8c-2.4,16.2-0.5,32.1,3.8,47.8
	c5.3,19.3,13.7,37.3,23.2,54.9c6.2,11.6,11.3,23.6,13.4,36.6c3.9,24.1-4.5,42.8-24.7,56.3c-14.1,9.4-29.9,14.1-46.4,16.9
	c-2.4,0.4-4.8,0.7-7.6,1c0.6-0.6,0.9-0.9,1.2-1.1c21-14.8,28.4-35.4,21.5-60.2c-3.2-11.5-8.3-22.1-15.3-31.8
	c-12.5-17.5-23.1-36-28.6-57c-9.2-35.6,0.4-65.8,26.7-91c18.2-17.5,40-29.1,63.3-38.2C592,54,597.8,52.1,603.8,50.7z"/>
<path fill="#1D1819" d="M685.5,790.9c-2.3,7.2-4.3,13.6-6.3,20c-3.7,11.8-7.5,23.5-11.1,35.3c-0.6,1.9-1.3,2.6-3.4,2.6
	c-4.4-0.2-8.7-0.1-13.1,0c-1.6,0-2.3-0.3-2.8-2c-8.4-30.4-16.9-60.7-25.5-91.1c-0.6-2.1,0.1-2.2,1.8-2.2c5.7,0.1,11.4,0.2,17.2-0.1
	c3-0.2,3.8,1,4.4,3.6c4.1,18.5,8.3,37,12.5,55.6c0.1,0.6,0.3,1.1,0.7,2.5c3-10.6,5.8-20.3,8.6-30c2.1-7.3,4.2-14.6,6.2-21.8
	c0.6-2.1,1.4-4.1,2.8-5.9c4.5-5.7,13.2-5.1,16.7,1.3c3.2,6,4.3,12.8,6.2,19.2c3.4,11.4,6.6,22.9,9.9,34.4c0.2,0.8,0.2,1.7,1.1,2.3
	c4.4-19.5,8.9-39,13.2-58.5c0.5-2.1,1.3-2.6,3.3-2.6c5.8,0.1,11.6,0.1,17.5,0c2,0,2.7,0.1,2,2.5c-8.5,30.1-16.8,60.3-25.2,90.5
	c-0.4,1.6-1,2.4-2.9,2.3c-4.5-0.2-8.9-0.2-13.4,0c-1.9,0.1-2.5-0.7-3-2.3C697.2,828.3,691.5,810.1,685.5,790.9z"/>
<path fill="#1D1819" d="M405.7,828.9c-7.3,3.9-14.1,7.5-20.8,11.2c-1.6,0.9-3.2,1.3-5,1.2c-14.8-0.6-24.6-8.7-27.6-23.9
	c-2.8-14-2.6-28.1,0.4-42.1c2.9-13.1,11.5-20.1,24.8-20.9c10.9-0.7,21.8,0.2,32.7-0.6c4.5-0.3,8.9-0.3,13.4-0.9
	c2.6-0.3,3.1,0.4,3.1,2.9c-0.1,25.8,0,51.6-0.1,77.3c0,5.4,0,10.8-0.3,16.2c-0.8,13-8.3,22.3-20.8,25.7c-11.4,3.1-22.9,2.7-34-1.5
	c-9-3.4-14.4-9.9-15.5-19.6c-0.2-2-0.1-3,2.4-3.1c5.2-0.1,10.4-0.5,15.6-0.8c1.2-0.1,2.2-0.2,2.4,1.6c0.3,3.4,2.5,5.1,5.5,5.9
	c4.4,1.2,8.8,1.5,13.3,0.7c5.6-1.1,8.7-4.1,9.3-9.8C405.1,842.2,405.3,835.8,405.7,828.9z"/>
<path fill="#1D1819" d="M488.4,336.3c2.9-4.5,5.2-9.2,6-14.6c1.4-8.5-0.8-16.1-5.4-23.1c-4.1-6.4-9.3-11.7-15.5-16
	c-8.8-6.2-17.1-12.9-23.9-21.3c-9.1-11.1-14.9-23.5-14.5-38.1c0.2-7.2,1.9-14.2,4.8-20.8c8.3-19.2,22.6-33.3,39.3-45.5
	c-1.3,2.3-2.6,4.5-3.9,6.8c-14.8,25.7-12.7,50.1,5.4,73.4c6.8,8.8,14.7,16.7,22.9,24.2c5.9,5.4,11.2,11.5,14.8,18.7
	c5.9,11.7,5.3,23.1-2.1,33.9C509.2,324.1,499.4,330.9,488.4,336.3z"/>
<path fill="#1D1819" d="M472.7,801.6c7.6-11.4,15.3-22.7,22.9-34.1c1.9-2.8,3.8-5.7,5.7-8.5c0.7-1,1.4-1.6,2.7-1.6
	c7.4,0.1,14.7,0,22.1,0c0.4,1.3-0.6,1.8-1.1,2.5c-9.1,12.5-18.2,25-27.4,37.5c-1.5,2-1.6,3.2,0,5.3c11,14.2,21.8,28.6,32.6,42.9
	c0.7,0.9,1.3,1.8,2.3,3.1c-8.7,0-16.9,0-25.2,0c-1.3,0-1.6-1.2-2.2-2c-7.2-9.6-14.3-19.2-21.4-28.7c-0.7-0.9-1.4-1.8-2.2-2.9
	c-3.1,4.4-6,8.6-9,12.8c-0.7,1-0.5,2-0.5,3c0,5.1-0.1,10.2,0,15.3c0.1,2-0.4,2.7-2.5,2.6c-5.5-0.2-11-0.2-16.5,0
	c-2.2,0.1-2.7-0.6-2.7-2.8c0.1-24.8,0-49.7,0-74.5c0-15.1,0-30.1-0.1-45.2c0-2.2,0.4-3.1,2.9-3c5,0.2,10,0.2,15,0
	c3-0.2,4,0.5,3.9,3.8c-0.2,23.9-0.1,47.8-0.1,71.7c0,0.9,0,1.8,0,2.7C472.3,801.5,472.5,801.6,472.7,801.6z"/>
<path fill="#1D1819" d="M98.6,393.9c12.6,33.6,29.3,65,49.2,94.8c70.5,105.5,166.7,176.5,287.5,214.6c0.9,0.3,1.7,0.6,2.6,1.1
	c-5-0.2-9.9-1.3-14.8-2.4c-76.1-17.3-143.8-51.2-201.8-103.8c-53-48-90-106.6-113.9-173.8c-3.5-9.9-6.8-19.8-9.5-29.9
	C97.8,393.8,98.1,393.7,98.6,393.9z"/>
<path fill="#1D1819" d="M245.8,801.4c-0.3,7.8-0.6,15.3-2.2,22.6c-3.4,14.8-12.2,23.9-27.5,26.3c-8,1.3-15.9,1.2-23.8-0.6
	c-13.2-3-21-11.7-24.1-24.6c-3.6-15.4-3.9-30.9-0.2-46.3c3.8-15.9,14.8-24.9,31.2-26.1c6.1-0.4,12.3-0.5,18.3,0.8
	c14.9,3.2,23.6,12.5,26.6,28.4C245.4,788.4,245.7,795.1,245.8,801.4z"/>
<path fill="#1D1819" d="M617,801.1c-0.2,8-0.5,15.6-2.2,23.1c-3.6,15.5-12.7,24-28.5,26.3c-7.3,1.1-14.5,0.9-21.7-0.5
	c-13.7-2.8-21.9-11.4-25.1-24.6c-3.7-15.4-3.9-30.9-0.2-46.3c3.9-16.1,14.2-24.8,30.7-26.3c6.3-0.6,12.7-0.6,18.9,0.8
	c15,3.2,23.5,12.6,26.5,28.5C616.7,788.5,616.9,795,617,801.1z"/>
<path fill="#1D1819" d="M261.2,801.3c0-14.9,0.1-29.7-0.1-44.6c0-2.7,0.8-3.4,3.3-3.2c3.3,0.2,6.7,0.2,10,0c2.1-0.1,3.5,0.4,4.2,2.6
	c0.7,2.2,2,4.1,2.7,6.3c0.7,2.1,1.6,2.4,3.6,1.4c6.5-3.2,13.3-5.9,19.7-9.3c5-2.7,9.9-2.3,14.6-0.2c10.6,4.6,16,13.1,17.3,24.4
	c0.6,5.6,0.4,11.2,0.4,16.8c0,16.7,0,33.5,0.1,50.2c0,2.5-0.7,3.1-3.1,3c-5.1-0.2-10.2-0.2-15.3,0c-2.6,0.1-3.5-0.4-3.4-3.3
	c0.2-18.6,0.1-37.2,0.1-55.9c0-2.3-0.1-4.6-0.5-6.8c-1.3-7.3-7.9-10.9-14.8-8.1c-4.8,2-9.5,4.1-14.4,5.9c-2.1,0.8-2.7,1.9-2.7,4.1
	c0.1,20.3,0,40.6,0.1,60.8c0,2.6-0.7,3.3-3.2,3.2c-5.1-0.2-10.2-0.2-15.3,0c-2.5,0.1-3.3-0.5-3.3-3.2
	C261.3,830.8,261.2,816.1,261.2,801.3z"/>
<path fill="#1D1819" d="M897.1,799.9c0,15.3-0.1,30.6,0.1,45.9c0,2.5-0.7,3.1-3.1,3c-5.7-0.2-11.4-0.2-17.2,0
	c-2.4,0.1-3.1-0.6-3.1-3c0.1-30.6,0-61.1,0.1-91.7c0-2.6-0.5-3.5-3.3-3.4c-8.6,0.2-17.3,0-25.9,0.1c-2.1,0-2.6-0.6-2.6-2.6
	c0.1-5.2,0.1-10.4,0-15.6c0-1.8,0.3-2.5,2.4-2.5c27.5,0.1,54.9,0.1,82.4,0c1.6,0,2.1,0.4,2.1,2.1c-0.1,5.4-0.1,10.8,0,16.2
	c0,1.9-0.5,2.5-2.4,2.4c-8.8-0.1-17.7,0.1-26.5-0.1c-2.6-0.1-3,0.8-3,3.1C897.1,769.1,897.1,784.5,897.1,799.9z"/>
<path fill="#1D1819" d="M800.8,789.1c0-18.7,0.1-37.4-0.1-56.2c0-2.5,0.7-3.1,3.1-3c5.9,0.2,11.9,0.1,17.8,0c1.9,0,2.4,0.5,2.4,2.4
	c-0.1,38-0.1,75.9,0,113.9c0,2.1-0.6,2.6-2.6,2.5c-5.9-0.1-11.9-0.2-17.8,0c-2.3,0.1-2.9-0.5-2.9-2.9
	C800.9,827,800.8,808,800.8,789.1z"/>
<path fill="#1D1819" d="M794,944.1c-0.5,5.2-4.1,4.6-7.5,4.5c-1.6,0-2.1-0.4-2.1-2.1c0.1-16.4,0.1-32.8,0-49.2c0-1.4,0.3-1.9,1.9-2
	c8.4-0.4,8.4-0.5,8.4,7.9c0,3.8,0,7.6,0,12c3-4.2,6.8-5.8,11.4-5.6c5.7,0.3,9.5,3.3,11.6,8.5c2.9,7.2,2.9,14.7,0.3,21.9
	c-3.6,10.1-14.8,12.4-22.7,5.1C795,944.8,794.6,944.6,794,944.1z"/>
<path fill="#1D1819" d="M663.8,927.1c4.1-5.1,8.6-9.6,12.7-14.4c1.5-1.7,3-2.6,5.3-2.4c2.6,0.2,5.1,0,8.5,0c-3.4,3.8-6.3,7-9.2,10.3
	c-1.9,2.1-5,4.2-5.1,6.4c-0.1,2.2,2.9,4.5,4.5,6.8c3.5,4.8,7,9.5,10.9,14.7c-4,0-7.6,0-11.2,0c-1.2,0-1.5-1-2-1.7
	c-2.6-3.6-5.1-7.3-7.8-10.9c-0.7-0.9-1.1-3-2.4-2.2c-1.6,0.9-3.9,1.7-3.9,4.4c0,2.8-0.1,5.6,0,8.4c0.1,1.6-0.3,2.1-2,2.1
	c-8.4,0.2-8.4,0.3-8.4-7.9c0-14.1,0.1-28.3-0.1-42.4c0-2.3,0.5-3,2.9-3c7.6,0.1,7.6,0,7.6,7.5C664,910.9,664.4,918.9,663.8,927.1z"
	/>
<path fill="#1D1819" d="M569.9,923.5c0-7.5,0.1-15-0.1-22.4c0-2.1,0.6-2.6,2.6-2.5c6.1,0.3,12.3-0.5,18.4,0.4
	c9.4,1.5,13.7,6.9,13.4,16c-0.3,8.6-5.7,14.4-14.5,15.4c-2.3,0.3-4.6,0.4-6.8,0.3c-2-0.1-2.4,0.6-2.4,2.5c0.1,4.4,0,8.7,0.1,13.1
	c0,1.8-0.4,2.4-2.2,2.3c-2.7-0.2-6.2,0.8-7.8-0.5c-1.7-1.4-0.5-5.1-0.5-7.7C569.8,934.8,569.9,929.1,569.9,923.5z"/>
<path fill="#1D1819" d="M850.2,943.2c-4.5,5.9-10.3,6.9-16.7,5.4c-4.6-1.1-7.2-4.7-7.7-9.8c-0.5-5.5,1.4-9.3,5.6-11.5
	c4.3-2.1,9-2.3,13.7-2.6c1.4-0.1,3.8,1.4,4.2-1.5c0.4-3-1.4-5.5-4.3-5.9c-2.8-0.4-5.6,0.2-8.3,1c-1.4,0.4-3.1,2.1-4.2,1
	c-1.4-1.5-2.1-3.8-3-5.8c-0.4-1,0.6-1.1,1.3-1.4c6.6-2.9,13.4-3.7,20.4-1.6c5,1.5,8,5.4,8.2,10.6c0.2,8.5,0.1,17,0.1,25.6
	c0,1.3-0.3,1.8-1.7,1.8C852.7,948.9,852.7,949,850.2,943.2z"/>
<path fill="#1D1819" d="M643.1,938.6c0,2.3-0.1,4.4,0,6.5c0.1,1.3-0.6,1.9-1.7,2.2c-7,2.4-14,3-21,0.1c-6.1-2.5-8.9-7.5-9.8-13.8
	c-0.4-2.8-0.4-5.6,0-8.4c1.8-11.8,11-17.9,22.7-15.2c7.1,1.7,11.3,7,12,15.2c0.5,6.8,0.5,6.8-6.1,6.8c-5.3,0-10.6,0.1-15.9,0
	c-2.1-0.1-2.5,0.6-2.1,2.5c0.7,3.4,3.1,6,6.6,6.6c4.2,0.8,8.3-0.1,12.2-1.4C640.9,939.5,641.9,939.1,643.1,938.6z"/>
<path fill="#1D1819" d="M718.7,943.3c-4.5,5.8-10.4,7-16.9,5.3c-4.6-1.2-7.1-4.8-7.5-10.3c-0.4-5,1.5-8.9,5.5-10.9
	c4.4-2.2,9.2-2.3,13.9-2.6c1.3-0.1,3.8,1.6,4.1-1.6c0.2-3-1.3-5.4-4-5.8c-2.6-0.4-5.2,0-7.7,0.7c-5.3,1.5-5.2,1.5-7.5-3.4
	c-0.6-1.3-0.7-1.9,0.8-2.5c6.5-2.7,13.2-3.6,20.1-1.6c5,1.4,8.2,4.8,8.3,10c0.3,8.8,0.2,17.6,0.3,26.5c0,1.3-0.5,1.5-1.6,1.6
	C721.2,949,721.2,949,718.7,943.3z"/>
<path fill="#1D1819" d="M747.7,916c4.5-5.8,9.5-6.9,15.2-6.2c5.7,0.7,9.7,4.2,10.3,9.9c1,9.1,0.2,18.3,0.4,27.4
	c0,1.1-0.4,1.5-1.5,1.4c-0.2,0-0.4,0-0.6,0c-8.3,0.4-8.3,0.4-8.3-8c0-5,0.1-10,0-15c-0.1-5-1.9-7.4-5.5-7.7
	c-4.6-0.3-7.4,1.8-8.2,6.6c-1.2,7-0.5,14.1-0.5,21.1c0,2.3-0.5,3.2-2.9,2.9c-2.4-0.3-5.7,1.1-7.2-0.6c-1.2-1.4-0.3-4.6-0.4-7
	c0-9.2,0.1-18.5-0.1-27.7c0-2.5,0.8-2.9,3.1-3C745.3,910.1,748,910.5,747.7,916z"/>
<path fill="#1D1819" d="M879.7,917c3.1-4.7,6.8-7.5,12.2-7.4c2,0.1,3.5,0.3,2.7,2.9c0,0.1,0,0.2,0,0.3c-0.1,2,0.3,4.3-0.6,5.8
	c-1,1.8-3.6,0.4-5.4,0.8c-5.2,1.1-7.9,4.1-8,9.5c-0.1,5.7-0.1,11.4,0,17.1c0,1.8-0.3,2.5-2.3,2.5c-8.1,0.1-8.1,0.1-8.1-7.9
	c0-9.1,0.1-18.3-0.1-27.4c0-2.6,0.8-3.1,3.1-3C877.9,910.5,877.9,910.3,879.7,917z"/>
<path fill="#8A8788" d="M98.6,393.9c-0.2,0.2-0.4,0.4-0.6,0.6c-1.3-2.3-1.5-5-2.1-7.5C97.1,389.1,98,391.4,98.6,393.9z"/>
<path fill="#FEFEFE" d="M649.7,457.6c0-8.2,0-13.9,0-19.6c0-1-0.4-2.3,1.3-2.2c9.7,0.3,19.6-1.1,29.2,0.9c19.3,4,31.3,21,29.4,40.9
	c-1.7,17.9-17.6,32.2-36.6,32.6c-9.6,0.2-19.1,0-28.7,0.1c-1.9,0-2.6-0.3-1.9-2.4C648.4,490.7,650.5,473.1,649.7,457.6z"/>
<path fill="#FEFEFE" d="M405.1,792.2c0,5.2-0.1,10.4,0,15.6c0,1.7-0.6,2.6-2,3.3c-3.5,1.7-7,3.6-10.5,5.4c-8.8,4.6-18,0.2-19.7-9.6
	c-1.3-7.6-0.9-15.2,1.1-22.6c1.9-7.1,6.4-10.5,13.9-10.6c5-0.1,10,0.1,15-0.1c1.8,0,2.3,0.5,2.3,2.3
	C405,781.4,405.1,786.8,405.1,792.2z"/>
<path fill="#FEFEFE" d="M224.1,801.3c0.1,5.5,0.1,11-1.2,16.4c-2,8.8-7.4,13.3-16,13.8c-8.8,0.4-15.1-3.6-17.5-12.3
	c-3.2-11.5-3.3-23.3-0.4-34.8c3-12,18.1-16.7,28.2-9.5c4.3,3.1,5.7,7.7,6.4,12.7C224.2,792.1,224.2,796.7,224.1,801.3z"/>
<path fill="#FEFEFE" d="M595.4,801.2c0.1,5.5,0.1,11-1.2,16.4c-2,8.7-7.3,13.3-16,13.8c-8.8,0.5-15.1-3.6-17.6-12.2
	c-3.2-11.5-3.3-23.3-0.4-34.8c2.9-12,18.1-16.8,28.2-9.5c4.4,3.2,5.8,7.9,6.5,13C595.5,792.3,595.5,796.8,595.4,801.2z"/>
<path fill="#FEFEFE" d="M809.1,929.2c0,2.5-0.1,5-1.2,7.3c-1.2,2.7-3.1,4.4-6.3,4.2c-3.2-0.2-5.3-1.7-6.2-4.8
	c-1.2-4.4-1.3-8.8-0.1-13.2c0.7-2.9,2.7-4.5,5.8-4.8c3.2-0.2,5.4,1.1,6.7,4C809,924.3,809.1,926.7,809.1,929.2z"/>
<path fill="#FDFDFD" d="M580.4,915.2c0-1.1-0.1-1.5,0-1.9c0.6-2-1.7-5.3,1.5-5.9c6.8-1.3,10.6,0.8,11.5,5.4c0.8,4.1-1.2,7.7-5,8.8
	c-2.4,0.7-5.5,1.6-7.2,0.4C579.1,920.4,581,917.1,580.4,915.2z"/>
<path fill="#FDFDFD" d="M845.2,931c4.5-0.2,4.6,0,4.1,3.8c-0.5,4.2-3.5,6.8-7.8,6.8c-2.3,0-4.4-0.6-5-3.2c-0.5-2.5,0.2-4.7,2.6-6.1
	C841.2,931.1,843.4,931,845.2,931z"/>
<path fill="#FDFDFD" d="M628.5,925c-1.7,0-3.3-0.1-5,0c-2.6,0.3-2.7-0.9-2-2.9c1.1-3.4,3.4-5.2,6.9-5.2c3.4,0,6,2,6.8,5.3
	c0.5,1.8,0.4,3.1-2.1,2.8C631.7,924.9,630.1,925,628.5,925z"/>
<path fill="#FDFDFD" d="M714.7,931c3.1-1.1,3.3,0.9,3.1,3.6c-0.4,4.2-3.3,7-7.6,7c-2.4,0-4.7-0.5-5.2-3.3c-0.5-2.7,0.4-4.9,2.9-6.2
	C710,931.1,712.1,931,714.7,931z"/>
</svg>
