<svg width="600" height="600" viewBox="0 0 600 600" fill="none" xmlns="http://www.w3.org/2000/svg">
<g filter="url(#filter0_i_716_43)">
<rect x="27" y="26" width="247" height="247" rx="52" fill="#FFE5E5"/>
</g>
<path d="M52.6033 139.342C53.9018 141.379 55.0984 143.365 56.4224 145.275C80.3045 179.825 112.232 203.172 152.816 214.425C160.964 216.691 169.238 218.194 177.64 219.187C188.614 220.511 199.613 220.791 210.612 220.23C224.564 219.518 238.338 217.455 251.934 214.273C252.011 214.247 252.087 214.273 252.214 214.349C251.323 214.731 250.458 215.138 249.567 215.52C248.675 215.902 247.759 216.284 246.868 216.641C233.756 221.885 220.211 225.628 206.258 227.92C195.539 229.676 184.769 230.491 173.923 230.084C137.591 228.811 107.013 215.062 82.6723 187.87C71.1641 175.013 62.2783 160.475 54.9966 144.893C54.1819 143.136 53.4181 141.379 52.6288 139.622C52.6033 139.597 52.6033 139.521 52.6033 139.342Z" fill="#1D1819"/>
<path d="M178.023 66.041C175.783 67.8996 173.593 69.8346 171.684 72.0242C168.628 75.5632 166.49 79.5351 165.802 84.1944C165.191 88.319 165.675 92.3672 166.77 96.3645C168.119 101.278 170.258 105.861 172.677 110.342C174.255 113.296 175.554 116.351 176.088 119.661C177.081 125.797 174.942 130.558 169.799 133.995C166.21 136.388 162.187 137.585 157.986 138.298C157.375 138.4 156.764 138.476 156.051 138.553C156.204 138.4 156.28 138.323 156.356 138.272C161.703 134.504 163.587 129.259 161.83 122.945C161.016 120.017 159.717 117.318 157.935 114.849C154.752 110.393 152.053 105.683 150.653 100.336C148.311 91.2724 150.755 83.5833 157.451 77.1673C162.085 72.7117 167.635 69.7583 173.568 67.4413C175.019 66.8812 176.496 66.3975 178.023 66.041Z" fill="#1D1819"/>
<path d="M148.641 138.756C149.38 137.61 149.965 136.413 150.169 135.038C150.526 132.874 149.965 130.939 148.794 129.157C147.75 127.527 146.426 126.178 144.848 125.083C142.607 123.505 140.494 121.799 138.763 119.66C136.446 116.834 134.969 113.677 135.071 109.96C135.122 108.127 135.555 106.344 136.293 104.664C138.406 99.7755 142.047 96.1855 146.299 93.0793C145.968 93.6649 145.637 94.2251 145.306 94.8107C141.538 101.354 142.073 107.566 146.681 113.499C148.412 115.739 150.424 117.751 152.511 119.66C154.014 121.035 155.363 122.588 156.28 124.421C157.782 127.4 157.629 130.303 155.745 133.052C153.937 135.649 151.442 137.381 148.641 138.756Z" fill="#1D1819"/>
<path d="M49.3971 153.421C52.6051 161.976 56.857 169.97 61.9236 177.557C79.8733 204.418 104.366 222.495 135.123 232.196C135.352 232.272 135.555 232.348 135.784 232.476C134.511 232.425 133.264 232.145 132.016 231.865C112.641 227.46 95.4042 218.829 80.6371 205.437C67.143 193.216 57.7226 178.296 51.6376 161.186C50.7465 158.666 49.9063 156.145 49.2188 153.574C49.1934 153.395 49.2698 153.37 49.3971 153.421Z" fill="#1D1819"/>
<path d="M49.3964 153.421C49.3455 153.472 49.2946 153.523 49.2437 153.573C48.9127 152.988 48.8617 152.3 48.709 151.664C49.0145 152.199 49.2437 152.784 49.3964 153.421Z" fill="#1D1819"/>
<path fill-rule="evenodd" clip-rule="evenodd" d="M185.584 147.387H143.39C129.337 147.387 115.26 147.387 101.208 147.438C100.699 147.438 100.189 147.438 99.7057 147.514C98.0253 147.769 97.236 148.685 97.236 150.365C97.236 157.825 97.236 165.26 97.2615 172.694C97.2615 176.335 97.8471 179.9 98.7891 183.413C98.891 183.846 99.1201 184.152 99.4765 184.406C115.669 196.551 133.492 205.462 152.944 211.114C153.351 211.216 153.707 211.267 154.115 211.191C157.246 210.605 160.327 209.841 163.332 208.823C163.651 208.712 163.971 208.602 164.291 208.492C166.829 207.62 169.368 206.748 171.606 205.233C177.182 201.414 181.459 196.373 184.769 190.517C185.049 190.007 185.355 189.829 185.94 189.829C187.735 189.867 189.514 189.863 191.301 189.858C191.898 189.856 192.496 189.855 193.095 189.855C193.545 189.847 193.992 189.851 194.438 189.854C195.507 189.863 196.567 189.871 197.627 189.727C207.047 188.403 213.183 179.518 211.045 170.25C209.542 163.783 203.941 158.818 197.321 158.131C195.763 157.958 194.192 157.985 192.626 158.012C191.89 158.025 191.154 158.037 190.422 158.029C189.861 158.029 189.734 157.876 189.734 157.316C189.751 155.756 189.745 154.206 189.74 152.653C189.737 151.875 189.734 151.096 189.734 150.315C189.734 149.042 189.199 148.227 188.003 147.743C187.214 147.438 186.399 147.387 185.584 147.387ZM189.709 164.649V169.639C189.912 173.585 189.378 178.067 187.85 182.446C187.672 182.98 187.85 183.057 188.334 183.057C189.381 183.046 190.424 183.049 191.467 183.052C192.856 183.056 194.244 183.06 195.641 183.031C200.478 182.929 204.527 179.289 204.959 174.731C205.443 169.665 202.388 165.336 197.474 164.318C195.844 163.978 194.18 164.024 192.52 164.069C191.691 164.092 190.862 164.114 190.04 164.089C189.676 164.067 189.69 164.298 189.703 164.523C189.706 164.566 189.709 164.608 189.709 164.649Z" fill="#E52129"/>
<g filter="url(#filter1_i_716_43)">
<rect x="326" y="28" width="247" height="247" rx="123.5" fill="#FFE6E6"/>
</g>
<path d="M357.636 134.437C358.848 136.338 359.965 138.192 361.202 139.975C383.499 172.232 413.307 194.03 451.198 204.537C458.805 206.652 466.531 208.055 474.375 208.982C484.62 210.218 494.889 210.479 505.158 209.957C518.185 209.291 531.045 207.366 543.739 204.394C543.81 204.37 543.881 204.394 544 204.465C543.168 204.822 542.36 205.202 541.528 205.559C540.696 205.915 539.84 206.272 539.008 206.605C526.766 211.502 514.12 214.996 501.093 217.135C491.086 218.776 481.031 219.536 470.904 219.156C436.983 217.967 408.434 205.131 385.709 179.744C374.965 167.739 366.669 154.166 359.87 139.619C359.11 137.978 358.397 136.338 357.66 134.698C357.636 134.674 357.636 134.603 357.636 134.437Z" fill="#1D1819"/>
<path d="M474.732 66C472.641 67.7353 470.596 69.5419 468.813 71.5861C465.961 74.8903 463.964 78.5985 463.322 82.9486C462.752 86.7995 463.204 90.579 464.226 94.3111C465.486 98.8988 467.482 103.178 469.741 107.361C471.214 110.119 472.427 112.971 472.926 116.061C473.853 121.79 471.856 126.235 467.054 129.444C463.703 131.679 459.947 132.796 456.025 133.462C455.454 133.557 454.884 133.628 454.218 133.699C454.361 133.557 454.432 133.485 454.503 133.438C459.495 129.92 461.254 125.023 459.614 119.128C458.853 116.394 457.641 113.874 455.977 111.569C453.006 107.409 450.486 103.011 449.179 98.0193C446.992 89.5569 449.274 82.3781 455.526 76.3879C459.852 72.228 465.034 69.4705 470.573 67.3074C471.927 66.7844 473.306 66.3328 474.732 66Z" fill="#1D1819"/>
<path d="M447.301 133.889C447.99 132.82 448.537 131.702 448.727 130.419C449.06 128.398 448.537 126.592 447.443 124.928C446.469 123.406 445.232 122.147 443.759 121.124C441.667 119.651 439.694 118.058 438.077 116.061C435.914 113.423 434.536 110.475 434.631 107.004C434.678 105.293 435.082 103.629 435.772 102.06C437.745 97.4961 441.144 94.1444 445.114 91.2444C444.805 91.7911 444.496 92.3141 444.187 92.8608C440.668 98.9699 441.168 104.77 445.47 110.309C447.087 112.4 448.964 114.278 450.914 116.061C452.316 117.345 453.576 118.795 454.432 120.506C455.834 123.288 455.692 125.997 453.933 128.565C452.245 130.989 449.915 132.606 447.301 133.889Z" fill="#1D1819"/>
<path d="M354.642 147.581C357.638 155.568 361.607 163.032 366.338 170.115C383.096 195.194 405.964 212.071 434.679 221.128C434.893 221.199 435.083 221.27 435.297 221.389C434.108 221.342 432.943 221.08 431.779 220.819C413.689 216.706 397.596 208.648 383.809 196.144C371.211 184.734 362.415 170.805 356.734 154.831C355.902 152.477 355.118 150.124 354.476 147.723C354.452 147.557 354.524 147.533 354.642 147.581Z" fill="#1D1819"/>
<path d="M354.642 147.58C354.594 147.628 354.547 147.676 354.499 147.723C354.19 147.176 354.143 146.535 354 145.94C354.285 146.439 354.499 146.986 354.642 147.58Z" fill="#1D1819"/>
<path fill-rule="evenodd" clip-rule="evenodd" d="M481.791 141.948H442.397C429.278 141.948 416.134 141.948 403.015 141.995C402.539 141.995 402.064 141.995 401.612 142.066C400.043 142.304 399.307 143.16 399.307 144.729C399.307 151.694 399.307 158.635 399.33 165.576C399.33 168.975 399.877 172.303 400.757 175.583C400.852 175.987 401.066 176.273 401.398 176.51C416.517 187.849 433.156 196.169 451.317 201.446C451.698 201.541 452.03 201.589 452.411 201.517C455.334 200.971 458.211 200.257 461.016 199.307C461.314 199.203 461.613 199.1 461.912 198.997C464.281 198.183 466.652 197.369 468.741 195.955C473.947 192.389 477.941 187.683 481.031 182.215C481.292 181.74 481.577 181.574 482.124 181.574C483.799 181.609 485.461 181.605 487.129 181.6C487.686 181.599 488.244 181.597 488.804 181.597C489.224 181.59 489.642 181.594 490.058 181.597C491.056 181.605 492.045 181.613 493.035 181.478C501.83 180.242 507.559 171.946 505.562 163.294C504.16 157.256 498.93 152.621 492.75 151.979C491.294 151.817 489.828 151.842 488.366 151.868C487.678 151.879 486.992 151.891 486.308 151.884C485.785 151.884 485.666 151.741 485.666 151.218C485.682 149.761 485.677 148.315 485.671 146.865C485.669 146.138 485.666 145.411 485.666 144.681C485.666 143.493 485.167 142.732 484.05 142.28C483.313 141.995 482.552 141.948 481.791 141.948ZM485.642 158.064V162.723C485.832 166.408 485.333 170.591 483.907 174.68C483.741 175.179 483.907 175.25 484.359 175.25C485.337 175.24 486.311 175.243 487.284 175.246C488.581 175.25 489.877 175.254 491.181 175.227C495.697 175.132 499.477 171.732 499.881 167.477C500.333 162.747 497.48 158.706 492.892 157.755C491.371 157.438 489.817 157.48 488.267 157.523C487.493 157.544 486.719 157.565 485.951 157.541C485.612 157.521 485.625 157.736 485.637 157.947C485.64 157.987 485.642 158.026 485.642 158.064Z" fill="#E52129"/>
<g filter="url(#filter2_d_716_43)">
<rect x="27" y="326" width="247" height="247" rx="123.5" fill="#201A26"/>
</g>
<path d="M58.6359 432.437C59.8482 434.338 60.9654 436.192 62.2015 437.975C84.4987 470.232 114.307 492.03 152.198 502.537C159.805 504.652 167.531 506.055 175.375 506.982C185.62 508.218 195.889 508.479 206.158 507.957C219.185 507.291 232.045 505.366 244.739 502.394C244.81 502.37 244.881 502.394 245 502.465C244.168 502.822 243.36 503.202 242.528 503.559C241.696 503.915 240.84 504.272 240.008 504.605C227.766 509.502 215.12 512.996 202.093 515.135C192.086 516.776 182.031 517.536 171.904 517.156C137.983 515.967 109.434 503.131 86.7094 477.744C75.9649 465.739 67.6688 452.166 60.8703 437.619C60.1097 435.978 59.3966 434.338 58.6597 432.698C58.6359 432.674 58.6359 432.603 58.6359 432.437Z" fill="#FFE5E5"/>
<path d="M175.732 364C173.641 365.735 171.596 367.542 169.813 369.586C166.961 372.89 164.964 376.599 164.322 380.949C163.752 384.799 164.204 388.579 165.226 392.311C166.486 396.899 168.482 401.178 170.741 405.361C172.214 408.119 173.427 410.971 173.926 414.061C174.853 419.79 172.856 424.235 168.054 427.444C164.703 429.679 160.947 430.796 157.025 431.462C156.454 431.557 155.884 431.628 155.218 431.699C155.361 431.557 155.432 431.485 155.503 431.438C160.495 427.92 162.254 423.023 160.614 417.128C159.853 414.394 158.641 411.874 156.977 409.569C154.006 405.409 151.486 401.011 150.179 396.019C147.992 387.557 150.274 380.378 156.526 374.388C160.852 370.228 166.034 367.471 171.573 365.307C172.927 364.784 174.306 364.333 175.732 364Z" fill="#FFE5E5"/>
<path d="M148.301 431.889C148.99 430.82 149.537 429.702 149.727 428.419C150.06 426.398 149.537 424.592 148.443 422.928C147.469 421.406 146.232 420.147 144.759 419.124C142.667 417.651 140.694 416.058 139.077 414.061C136.914 411.423 135.536 408.475 135.631 405.004C135.678 403.293 136.082 401.629 136.772 400.06C138.745 395.496 142.144 392.144 146.114 389.244C145.805 389.791 145.496 390.314 145.187 390.861C141.668 396.97 142.168 402.77 146.47 408.309C148.087 410.4 149.964 412.278 151.914 414.061C153.316 415.345 154.576 416.795 155.432 418.506C156.834 421.288 156.692 423.997 154.933 426.565C153.245 428.989 150.915 430.606 148.301 431.889Z" fill="#FFE5E5"/>
<path d="M55.6424 445.581C58.6375 453.568 62.6073 461.032 67.3377 468.115C84.0961 493.194 106.964 510.071 135.679 519.128C135.893 519.199 136.083 519.27 136.297 519.389C135.108 519.342 133.943 519.08 132.779 518.819C114.689 514.706 98.5963 506.648 84.8092 494.145C72.2107 482.735 63.4155 468.805 57.7342 452.831C56.9023 450.477 56.1178 448.124 55.476 445.723C55.4522 445.557 55.5236 445.533 55.6424 445.581Z" fill="#FFE5E5"/>
<path d="M55.6418 445.581C55.5943 445.628 55.5467 445.676 55.4992 445.723C55.1902 445.176 55.1426 444.535 55 443.94C55.2853 444.44 55.4992 444.986 55.6418 445.581Z" fill="#FFE5E5"/>
<path fill-rule="evenodd" clip-rule="evenodd" d="M182.791 439.948H143.397C130.278 439.948 117.134 439.948 104.015 439.995C103.539 439.995 103.064 439.995 102.612 440.066C101.043 440.304 100.307 441.16 100.307 442.729C100.307 449.694 100.307 456.635 100.33 463.576C100.33 466.975 100.877 470.303 101.757 473.583C101.852 473.987 102.066 474.273 102.398 474.51C117.517 485.849 134.156 494.169 152.317 499.446C152.698 499.541 153.03 499.589 153.411 499.517C156.334 498.971 159.211 498.257 162.016 497.307C162.314 497.203 162.613 497.1 162.912 496.997C165.281 496.183 167.652 495.369 169.741 493.955C174.947 490.389 178.941 485.683 182.031 480.215C182.292 479.74 182.577 479.574 183.124 479.574C184.799 479.609 186.461 479.605 188.129 479.6C188.686 479.599 189.244 479.597 189.804 479.597C190.224 479.59 190.642 479.594 191.058 479.597C192.056 479.605 193.045 479.613 194.035 479.478C202.83 478.242 208.559 469.946 206.562 461.294C205.16 455.256 199.93 450.621 193.75 449.979C192.294 449.817 190.828 449.842 189.366 449.868C188.678 449.879 187.992 449.891 187.308 449.884C186.785 449.884 186.666 449.741 186.666 449.218C186.682 447.761 186.677 446.315 186.671 444.865C186.669 444.138 186.666 443.411 186.666 442.681C186.666 441.493 186.167 440.732 185.05 440.28C184.313 439.995 183.552 439.948 182.791 439.948ZM186.642 456.064V460.723C186.832 464.408 186.333 468.591 184.907 472.68C184.741 473.179 184.907 473.25 185.359 473.25C186.337 473.24 187.311 473.243 188.284 473.246C189.581 473.25 190.877 473.254 192.181 473.227C196.697 473.132 200.477 469.732 200.881 465.477C201.333 460.747 198.48 456.706 193.892 455.755C192.371 455.438 190.817 455.48 189.267 455.523C188.493 455.544 187.719 455.565 186.951 455.541C186.612 455.521 186.625 455.736 186.637 455.947C186.64 455.987 186.642 456.026 186.642 456.064Z" fill="#E52129"/>
<g filter="url(#filter3_d_716_43)">
<rect x="326" y="326" width="247" height="247" rx="52" fill="#201A26"/>
</g>
<path d="M351.603 439.342C352.902 441.379 354.098 443.365 355.422 445.275C379.304 479.825 411.232 503.172 451.816 514.425C459.964 516.691 468.238 518.194 476.64 519.186C487.614 520.51 498.613 520.79 509.612 520.23C523.564 519.517 537.338 517.455 550.934 514.273C551.011 514.247 551.087 514.273 551.214 514.349C550.323 514.731 549.458 515.138 548.567 515.52C547.675 515.902 546.759 516.284 545.868 516.64C532.756 521.885 519.21 525.628 505.258 527.919C494.539 529.676 483.769 530.491 472.923 530.084C436.591 528.811 406.013 515.062 381.672 487.87C370.164 475.012 361.278 460.475 353.997 444.893C353.182 443.136 352.418 441.379 351.629 439.622C351.603 439.597 351.603 439.521 351.603 439.342Z" fill="#FFE5E5"/>
<path d="M477.023 366.041C474.783 367.9 472.593 369.835 470.684 372.024C467.628 375.563 465.49 379.535 464.802 384.194C464.191 388.319 464.675 392.367 465.77 396.364C467.119 401.278 469.258 405.861 471.677 410.342C473.255 413.296 474.554 416.351 475.088 419.661C476.081 425.797 473.943 430.558 468.799 433.995C465.21 436.388 461.187 437.585 456.986 438.298C456.375 438.4 455.764 438.476 455.051 438.553C455.204 438.4 455.28 438.323 455.356 438.272C460.703 434.504 462.587 429.259 460.83 422.945C460.016 420.017 458.717 417.318 456.935 414.849C453.752 410.393 451.053 405.683 449.653 400.336C447.311 391.272 449.755 383.583 456.451 377.167C461.085 372.712 466.635 369.758 472.568 367.441C474.019 366.881 475.496 366.397 477.023 366.041Z" fill="#FFE5E5"/>
<path d="M447.641 438.756C448.38 437.61 448.965 436.413 449.169 435.038C449.526 432.874 448.965 430.939 447.794 429.157C446.75 427.527 445.426 426.178 443.848 425.083C441.607 423.505 439.494 421.799 437.763 419.66C435.446 416.834 433.969 413.677 434.071 409.96C434.122 408.127 434.555 406.344 435.293 404.664C437.406 399.775 441.047 396.186 445.299 393.079C444.968 393.665 444.637 394.225 444.306 394.811C440.538 401.354 441.073 407.566 445.681 413.499C447.412 415.739 449.424 417.751 451.511 419.66C453.014 421.035 454.363 422.588 455.28 424.421C456.782 427.4 456.629 430.303 454.745 433.052C452.937 435.649 450.442 437.381 447.641 438.756Z" fill="#FFE5E5"/>
<path d="M348.397 453.421C351.605 461.976 355.857 469.97 360.924 477.558C378.873 504.418 403.366 522.495 434.123 532.196C434.352 532.272 434.555 532.349 434.784 532.476C433.511 532.425 432.264 532.145 431.016 531.865C411.641 527.46 394.404 518.829 379.637 505.437C366.143 493.216 356.723 478.296 350.638 461.186C349.746 458.666 348.906 456.145 348.219 453.574C348.193 453.395 348.27 453.37 348.397 453.421Z" fill="#FFE5E5"/>
<path d="M348.396 453.421C348.346 453.472 348.295 453.523 348.244 453.574C347.913 452.988 347.862 452.301 347.709 451.664C348.015 452.199 348.244 452.784 348.396 453.421Z" fill="#FFE5E5"/>
<path fill-rule="evenodd" clip-rule="evenodd" d="M484.584 447.387H442.39C428.337 447.387 414.26 447.387 400.208 447.438C399.699 447.438 399.189 447.438 398.706 447.514C397.025 447.769 396.236 448.685 396.236 450.366C396.236 457.826 396.236 465.26 396.261 472.694C396.261 476.335 396.847 479.9 397.789 483.413C397.891 483.846 398.12 484.152 398.477 484.406C414.669 496.551 432.492 505.462 451.944 511.114C452.351 511.216 452.707 511.267 453.115 511.191C456.246 510.605 459.327 509.841 462.332 508.823C462.651 508.712 462.971 508.602 463.291 508.492C465.829 507.62 468.368 506.748 470.606 505.233C476.182 501.414 480.459 496.373 483.769 490.517C484.049 490.008 484.355 489.829 484.94 489.829C486.735 489.868 488.514 489.863 490.301 489.858C490.898 489.856 491.496 489.855 492.095 489.855C492.545 489.847 492.992 489.851 493.438 489.854C494.507 489.863 495.567 489.871 496.627 489.728C506.047 488.404 512.183 479.518 510.045 470.25C508.542 463.783 502.941 458.818 496.321 458.131C494.763 457.958 493.192 457.985 491.626 458.012C490.89 458.025 490.154 458.037 489.422 458.029C488.861 458.029 488.734 457.876 488.734 457.316C488.751 455.756 488.745 454.206 488.74 452.653C488.737 451.875 488.734 451.096 488.734 450.315C488.734 449.042 488.199 448.227 487.003 447.743C486.214 447.438 485.399 447.387 484.584 447.387ZM488.709 464.649V469.639C488.912 473.586 488.378 478.067 486.85 482.446C486.672 482.981 486.85 483.057 487.334 483.057C488.381 483.046 489.424 483.049 490.467 483.052C491.856 483.056 493.244 483.061 494.641 483.031C499.478 482.93 503.527 479.289 503.959 474.731C504.443 469.665 501.388 465.336 496.474 464.318C494.844 463.978 493.18 464.024 491.52 464.069C490.691 464.092 489.862 464.114 489.04 464.089C488.676 464.067 488.69 464.298 488.703 464.523C488.706 464.566 488.709 464.608 488.709 464.649Z" fill="#E52129"/>
<defs>
<filter id="filter0_i_716_43" x="27" y="26" width="251" height="251" filterUnits="userSpaceOnUse" color-interpolation-filters="sRGB">
<feFlood flood-opacity="0" result="BackgroundImageFix"/>
<feBlend mode="normal" in="SourceGraphic" in2="BackgroundImageFix" result="shape"/>
<feColorMatrix in="SourceAlpha" type="matrix" values="0 0 0 0 0 0 0 0 0 0 0 0 0 0 0 0 0 0 127 0" result="hardAlpha"/>
<feOffset dx="7" dy="10"/>
<feGaussianBlur stdDeviation="2"/>
<feComposite in2="hardAlpha" operator="arithmetic" k2="-1" k3="1"/>
<feColorMatrix type="matrix" values="0 0 0 0 0 0 0 0 0 0 0 0 0 0 0 0 0 0 0.25 0"/>
<feBlend mode="normal" in2="shape" result="effect1_innerShadow_716_43"/>
</filter>
<filter id="filter1_i_716_43" x="326" y="28" width="251" height="251" filterUnits="userSpaceOnUse" color-interpolation-filters="sRGB">
<feFlood flood-opacity="0" result="BackgroundImageFix"/>
<feBlend mode="normal" in="SourceGraphic" in2="BackgroundImageFix" result="shape"/>
<feColorMatrix in="SourceAlpha" type="matrix" values="0 0 0 0 0 0 0 0 0 0 0 0 0 0 0 0 0 0 127 0" result="hardAlpha"/>
<feOffset dx="7" dy="10"/>
<feGaussianBlur stdDeviation="2"/>
<feComposite in2="hardAlpha" operator="arithmetic" k2="-1" k3="1"/>
<feColorMatrix type="matrix" values="0 0 0 0 0 0 0 0 0 0 0 0 0 0 0 0 0 0 0.25 0"/>
<feBlend mode="normal" in2="shape" result="effect1_innerShadow_716_43"/>
</filter>
<filter id="filter2_d_716_43" x="27" y="326" width="258" height="261" filterUnits="userSpaceOnUse" color-interpolation-filters="sRGB">
<feFlood flood-opacity="0" result="BackgroundImageFix"/>
<feColorMatrix in="SourceAlpha" type="matrix" values="0 0 0 0 0 0 0 0 0 0 0 0 0 0 0 0 0 0 127 0" result="hardAlpha"/>
<feOffset dx="7" dy="10"/>
<feGaussianBlur stdDeviation="2"/>
<feComposite in2="hardAlpha" operator="out"/>
<feColorMatrix type="matrix" values="0 0 0 0 0 0 0 0 0 0 0 0 0 0 0 0 0 0 0.25 0"/>
<feBlend mode="normal" in2="BackgroundImageFix" result="effect1_dropShadow_716_43"/>
<feBlend mode="normal" in="SourceGraphic" in2="effect1_dropShadow_716_43" result="shape"/>
</filter>
<filter id="filter3_d_716_43" x="326" y="326" width="258" height="261" filterUnits="userSpaceOnUse" color-interpolation-filters="sRGB">
<feFlood flood-opacity="0" result="BackgroundImageFix"/>
<feColorMatrix in="SourceAlpha" type="matrix" values="0 0 0 0 0 0 0 0 0 0 0 0 0 0 0 0 0 0 127 0" result="hardAlpha"/>
<feOffset dx="7" dy="10"/>
<feGaussianBlur stdDeviation="2"/>
<feComposite in2="hardAlpha" operator="out"/>
<feColorMatrix type="matrix" values="0 0 0 0 0 0 0 0 0 0 0 0 0 0 0 0 0 0 0.25 0"/>
<feBlend mode="normal" in2="BackgroundImageFix" result="effect1_dropShadow_716_43"/>
<feBlend mode="normal" in="SourceGraphic" in2="effect1_dropShadow_716_43" result="shape"/>
</filter>
</defs>
</svg>
