<svg width="600" height="600" viewBox="0 0 600 600" fill="none" xmlns="http://www.w3.org/2000/svg">
<g filter="url(#filter0_d_716_43)">
<rect x="326" y="326" width="247" height="247" rx="52" fill="#FFE5E5"/>
</g>
<path d="M351.603 439.342C352.902 441.379 354.098 443.365 355.422 445.275C379.304 479.825 411.232 503.172 451.816 514.425C459.964 516.691 468.238 518.194 476.64 519.186C487.614 520.51 498.613 520.79 509.612 520.23C523.564 519.517 537.338 517.455 550.934 514.273C551.011 514.247 551.087 514.273 551.214 514.349C550.323 514.731 549.458 515.138 548.567 515.52C547.675 515.902 546.759 516.284 545.868 516.64C532.756 521.885 519.21 525.628 505.258 527.919C494.539 529.676 483.769 530.491 472.923 530.084C436.591 528.811 406.013 515.062 381.672 487.87C370.164 475.012 361.278 460.475 353.997 444.893C353.182 443.136 352.418 441.379 351.629 439.622C351.603 439.597 351.603 439.521 351.603 439.342Z" fill="#1D1819"/>
<path d="M477.023 366.041C474.783 367.9 472.593 369.835 470.684 372.024C467.628 375.563 465.49 379.535 464.802 384.194C464.191 388.319 464.675 392.367 465.77 396.364C467.119 401.278 469.258 405.861 471.677 410.342C473.255 413.296 474.554 416.351 475.088 419.661C476.081 425.797 473.943 430.558 468.799 433.995C465.21 436.388 461.187 437.585 456.986 438.298C456.375 438.4 455.764 438.476 455.051 438.553C455.204 438.4 455.28 438.323 455.356 438.272C460.703 434.504 462.587 429.259 460.83 422.945C460.016 420.017 458.717 417.318 456.935 414.849C453.752 410.393 451.053 405.683 449.653 400.336C447.311 391.272 449.755 383.583 456.451 377.167C461.085 372.712 466.635 369.758 472.568 367.441C474.019 366.881 475.496 366.397 477.023 366.041Z" fill="#1D1819"/>
<path d="M447.641 438.756C448.38 437.61 448.965 436.413 449.169 435.038C449.526 432.874 448.965 430.939 447.794 429.157C446.75 427.527 445.426 426.178 443.848 425.083C441.607 423.505 439.494 421.799 437.763 419.66C435.446 416.834 433.969 413.677 434.071 409.96C434.122 408.127 434.555 406.344 435.293 404.664C437.406 399.775 441.047 396.186 445.299 393.079C444.968 393.665 444.637 394.225 444.306 394.811C440.538 401.354 441.073 407.566 445.681 413.499C447.412 415.739 449.424 417.751 451.511 419.66C453.014 421.035 454.363 422.588 455.28 424.421C456.782 427.4 456.629 430.303 454.745 433.052C452.937 435.649 450.442 437.381 447.641 438.756Z" fill="#1D1819"/>
<path d="M348.397 453.421C351.605 461.976 355.857 469.97 360.924 477.558C378.873 504.418 403.366 522.495 434.123 532.196C434.352 532.272 434.555 532.349 434.784 532.476C433.511 532.425 432.264 532.145 431.016 531.865C411.641 527.46 394.404 518.829 379.637 505.437C366.143 493.216 356.723 478.296 350.638 461.186C349.746 458.666 348.906 456.145 348.219 453.574C348.193 453.395 348.27 453.37 348.397 453.421Z" fill="#1D1819"/>
<path d="M348.396 453.421C348.346 453.472 348.295 453.523 348.244 453.574C347.913 452.988 347.862 452.301 347.709 451.664C348.015 452.199 348.244 452.784 348.396 453.421Z" fill="#1D1819"/>
<path fill-rule="evenodd" clip-rule="evenodd" d="M484.584 447.387H442.39C428.337 447.387 414.26 447.387 400.208 447.438C399.699 447.438 399.189 447.438 398.706 447.514C397.025 447.769 396.236 448.685 396.236 450.366C396.236 457.826 396.236 465.26 396.261 472.694C396.261 476.335 396.847 479.9 397.789 483.413C397.891 483.846 398.12 484.152 398.477 484.406C414.669 496.551 432.492 505.462 451.944 511.114C452.351 511.216 452.707 511.267 453.115 511.191C456.246 510.605 459.327 509.841 462.332 508.823C462.651 508.712 462.971 508.602 463.291 508.492C465.829 507.62 468.368 506.748 470.606 505.233C476.182 501.414 480.459 496.373 483.769 490.517C484.049 490.008 484.355 489.829 484.94 489.829C486.735 489.868 488.514 489.863 490.301 489.858C490.898 489.856 491.496 489.855 492.095 489.855C492.545 489.847 492.992 489.851 493.438 489.854C494.507 489.863 495.567 489.871 496.627 489.728C506.047 488.404 512.183 479.518 510.045 470.25C508.542 463.783 502.941 458.818 496.321 458.131C494.763 457.958 493.192 457.985 491.626 458.012C490.89 458.025 490.154 458.037 489.422 458.029C488.861 458.029 488.734 457.876 488.734 457.316C488.751 455.756 488.745 454.206 488.74 452.653C488.737 451.875 488.734 451.096 488.734 450.315C488.734 449.042 488.199 448.227 487.003 447.743C486.214 447.438 485.399 447.387 484.584 447.387ZM488.709 464.649V469.639C488.912 473.586 488.378 478.067 486.85 482.446C486.672 482.981 486.85 483.057 487.334 483.057C488.381 483.046 489.424 483.049 490.467 483.052C491.856 483.056 493.244 483.061 494.641 483.031C499.478 482.93 503.527 479.289 503.959 474.731C504.443 469.665 501.388 465.336 496.474 464.318C494.844 463.978 493.18 464.024 491.52 464.069C490.691 464.092 489.862 464.114 489.04 464.089C488.676 464.067 488.69 464.298 488.703 464.523C488.706 464.566 488.709 464.608 488.709 464.649Z" fill="#E52129"/>
<g filter="url(#filter1_d_716_43)">
<rect x="326" y="28" width="247" height="247" rx="123.5" fill="#FFE6E6"/>
</g>
<path d="M357.636 134.437C358.848 136.338 359.965 138.192 361.202 139.975C383.499 172.232 413.307 194.03 451.198 204.537C458.805 206.652 466.531 208.055 474.375 208.982C484.62 210.218 494.889 210.479 505.158 209.957C518.185 209.291 531.045 207.366 543.739 204.394C543.81 204.37 543.881 204.394 544 204.465C543.168 204.822 542.36 205.202 541.528 205.559C540.696 205.915 539.84 206.272 539.008 206.605C526.766 211.502 514.12 214.996 501.093 217.135C491.086 218.776 481.031 219.536 470.904 219.156C436.983 217.967 408.434 205.131 385.709 179.744C374.965 167.739 366.669 154.166 359.87 139.619C359.11 137.978 358.397 136.338 357.66 134.698C357.636 134.674 357.636 134.603 357.636 134.437Z" fill="#1D1819"/>
<path d="M474.732 66C472.641 67.7353 470.596 69.5419 468.813 71.5861C465.961 74.8903 463.964 78.5985 463.322 82.9486C462.752 86.7995 463.204 90.579 464.226 94.3111C465.486 98.8988 467.482 103.178 469.741 107.361C471.214 110.119 472.427 112.971 472.926 116.061C473.853 121.79 471.856 126.235 467.054 129.444C463.703 131.679 459.947 132.796 456.025 133.462C455.454 133.557 454.884 133.628 454.218 133.699C454.361 133.557 454.432 133.485 454.503 133.438C459.495 129.92 461.254 125.023 459.614 119.128C458.853 116.394 457.641 113.874 455.977 111.569C453.006 107.409 450.486 103.011 449.179 98.0193C446.992 89.5569 449.274 82.3781 455.526 76.3879C459.852 72.228 465.034 69.4705 470.573 67.3074C471.927 66.7844 473.306 66.3328 474.732 66Z" fill="#1D1819"/>
<path d="M447.301 133.889C447.99 132.82 448.537 131.702 448.727 130.419C449.06 128.398 448.537 126.592 447.443 124.928C446.469 123.406 445.232 122.147 443.759 121.124C441.667 119.651 439.694 118.058 438.077 116.061C435.914 113.423 434.536 110.475 434.631 107.004C434.678 105.293 435.082 103.629 435.772 102.06C437.745 97.4961 441.144 94.1444 445.114 91.2444C444.805 91.7911 444.496 92.3141 444.187 92.8608C440.668 98.9699 441.168 104.77 445.47 110.309C447.087 112.4 448.964 114.278 450.914 116.061C452.316 117.345 453.576 118.795 454.432 120.506C455.834 123.288 455.692 125.997 453.933 128.565C452.245 130.989 449.915 132.606 447.301 133.889Z" fill="#1D1819"/>
<path d="M354.642 147.581C357.638 155.568 361.607 163.032 366.338 170.115C383.096 195.194 405.964 212.071 434.679 221.128C434.893 221.199 435.083 221.27 435.297 221.389C434.108 221.342 432.943 221.08 431.779 220.819C413.689 216.706 397.596 208.648 383.809 196.144C371.211 184.734 362.415 170.805 356.734 154.831C355.902 152.477 355.118 150.124 354.476 147.723C354.452 147.557 354.524 147.533 354.642 147.581Z" fill="#1D1819"/>
<path d="M354.642 147.58C354.594 147.628 354.547 147.676 354.499 147.723C354.19 147.176 354.143 146.535 354 145.94C354.285 146.439 354.499 146.986 354.642 147.58Z" fill="#1D1819"/>
<path fill-rule="evenodd" clip-rule="evenodd" d="M481.791 141.948H442.397C429.278 141.948 416.134 141.948 403.015 141.995C402.539 141.995 402.064 141.995 401.612 142.066C400.043 142.304 399.307 143.16 399.307 144.729C399.307 151.694 399.307 158.635 399.33 165.576C399.33 168.975 399.877 172.303 400.757 175.583C400.852 175.987 401.066 176.273 401.398 176.51C416.517 187.849 433.156 196.169 451.317 201.446C451.698 201.541 452.03 201.589 452.411 201.517C455.334 200.971 458.211 200.257 461.016 199.307C461.314 199.203 461.613 199.1 461.912 198.997C464.281 198.183 466.652 197.369 468.741 195.955C473.947 192.389 477.941 187.683 481.031 182.215C481.292 181.74 481.577 181.574 482.124 181.574C483.799 181.609 485.461 181.605 487.129 181.6C487.686 181.599 488.244 181.597 488.804 181.597C489.224 181.59 489.642 181.594 490.058 181.597C491.056 181.605 492.045 181.613 493.035 181.478C501.83 180.242 507.559 171.946 505.562 163.294C504.16 157.256 498.93 152.621 492.75 151.979C491.294 151.817 489.828 151.842 488.366 151.868C487.678 151.879 486.992 151.891 486.308 151.884C485.785 151.884 485.666 151.741 485.666 151.218C485.682 149.761 485.677 148.315 485.671 146.865C485.669 146.138 485.666 145.411 485.666 144.681C485.666 143.493 485.167 142.732 484.05 142.28C483.313 141.995 482.552 141.948 481.791 141.948ZM485.642 158.064V162.723C485.832 166.408 485.333 170.591 483.907 174.68C483.741 175.179 483.907 175.25 484.359 175.25C485.337 175.24 486.311 175.243 487.284 175.246C488.581 175.25 489.877 175.254 491.181 175.227C495.697 175.132 499.477 171.732 499.881 167.477C500.333 162.747 497.48 158.706 492.892 157.755C491.371 157.438 489.817 157.48 488.267 157.523C487.493 157.544 486.719 157.565 485.951 157.541C485.612 157.521 485.625 157.736 485.637 157.947C485.64 157.987 485.642 158.026 485.642 158.064Z" fill="#E52129"/>
<g filter="url(#filter2_d_716_43)">
<rect x="26" y="26" width="247" height="247" rx="123.5" fill="#201A26"/>
</g>
<path d="M57.6359 132.437C58.8482 134.338 59.9654 136.192 61.2015 137.975C83.4987 170.232 113.307 192.03 151.198 202.537C158.805 204.652 166.531 206.055 174.375 206.982C184.62 208.218 194.889 208.479 205.158 207.957C218.185 207.291 231.045 205.366 243.739 202.394C243.81 202.37 243.881 202.394 244 202.465C243.168 202.822 242.36 203.202 241.528 203.559C240.696 203.915 239.84 204.272 239.008 204.605C226.766 209.502 214.12 212.996 201.093 215.135C191.086 216.776 181.031 217.536 170.904 217.156C136.983 215.967 108.434 203.131 85.7094 177.744C74.9649 165.739 66.6688 152.166 59.8703 137.619C59.1097 135.978 58.3966 134.338 57.6597 132.698C57.6359 132.674 57.6359 132.603 57.6359 132.437Z" fill="#FFE5E5"/>
<path d="M174.732 64C172.641 65.7353 170.596 67.5419 168.813 69.5861C165.961 72.8903 163.964 76.5985 163.322 80.9486C162.752 84.7995 163.204 88.579 164.226 92.3111C165.486 96.8988 167.482 101.178 169.741 105.361C171.214 108.119 172.427 110.971 172.926 114.061C173.853 119.79 171.856 124.235 167.054 127.444C163.703 129.679 159.947 130.796 156.025 131.462C155.454 131.557 154.884 131.628 154.218 131.699C154.361 131.557 154.432 131.485 154.503 131.438C159.495 127.92 161.254 123.023 159.614 117.128C158.853 114.394 157.641 111.874 155.977 109.569C153.006 105.409 150.486 101.011 149.179 96.0193C146.992 87.5569 149.274 80.3781 155.526 74.3879C159.852 70.228 165.034 67.4705 170.573 65.3074C171.927 64.7844 173.306 64.3328 174.732 64Z" fill="#FFE5E5"/>
<path d="M147.301 131.889C147.99 130.82 148.537 129.702 148.727 128.419C149.06 126.398 148.537 124.592 147.443 122.928C146.469 121.406 145.232 120.147 143.759 119.124C141.667 117.651 139.694 116.058 138.077 114.061C135.914 111.423 134.536 108.475 134.631 105.004C134.678 103.293 135.082 101.629 135.772 100.06C137.745 95.4961 141.144 92.1444 145.114 89.2444C144.805 89.7911 144.496 90.3141 144.187 90.8608C140.668 96.9699 141.168 102.77 145.47 108.309C147.087 110.4 148.964 112.278 150.914 114.061C152.316 115.345 153.576 116.795 154.432 118.506C155.834 121.288 155.692 123.997 153.933 126.565C152.245 128.989 149.915 130.606 147.301 131.889Z" fill="#FFE5E5"/>
<path d="M54.6424 145.581C57.6375 153.568 61.6073 161.032 66.3377 168.115C83.0961 193.194 105.964 210.071 134.679 219.128C134.893 219.199 135.083 219.27 135.297 219.389C134.108 219.342 132.943 219.08 131.779 218.819C113.689 214.706 97.5963 206.648 83.8092 194.144C71.2107 182.734 62.4155 168.805 56.7342 152.831C55.9023 150.477 55.1178 148.124 54.476 145.723C54.4522 145.557 54.5236 145.533 54.6424 145.581Z" fill="#FFE5E5"/>
<path d="M54.6418 145.58C54.5943 145.628 54.5467 145.676 54.4992 145.723C54.1902 145.176 54.1426 144.535 54 143.94C54.2853 144.439 54.4992 144.986 54.6418 145.58Z" fill="#FFE5E5"/>
<path fill-rule="evenodd" clip-rule="evenodd" d="M181.791 139.948H142.397C129.278 139.948 116.134 139.948 103.015 139.995C102.539 139.995 102.064 139.995 101.612 140.066C100.043 140.304 99.3066 141.16 99.3066 142.729C99.3066 149.694 99.3066 156.635 99.3303 163.576C99.3303 166.975 99.8771 170.303 100.757 173.583C100.852 173.987 101.066 174.273 101.398 174.51C116.517 185.849 133.156 194.169 151.317 199.446C151.698 199.541 152.03 199.589 152.411 199.517C155.334 198.971 158.211 198.257 161.016 197.307C161.314 197.203 161.613 197.1 161.912 196.997C164.281 196.183 166.652 195.369 168.741 193.955C173.947 190.389 177.941 185.683 181.031 180.215C181.292 179.74 181.577 179.574 182.124 179.574C183.799 179.609 185.461 179.605 187.129 179.6C187.686 179.599 188.244 179.597 188.804 179.597C189.224 179.59 189.642 179.594 190.058 179.597C191.056 179.605 192.045 179.613 193.035 179.478C201.83 178.242 207.559 169.946 205.562 161.294C204.16 155.256 198.93 150.621 192.75 149.979C191.294 149.817 189.828 149.842 188.366 149.868C187.678 149.879 186.992 149.891 186.308 149.884C185.785 149.884 185.666 149.741 185.666 149.218C185.682 147.761 185.677 146.315 185.671 144.865C185.669 144.138 185.666 143.411 185.666 142.681C185.666 141.493 185.167 140.732 184.05 140.28C183.313 139.995 182.552 139.948 181.791 139.948ZM185.642 156.064V160.723C185.832 164.408 185.333 168.591 183.907 172.68C183.741 173.179 183.907 173.25 184.359 173.25C185.337 173.24 186.311 173.243 187.284 173.246C188.581 173.25 189.877 173.254 191.181 173.227C195.697 173.132 199.477 169.732 199.881 165.477C200.333 160.747 197.48 156.706 192.892 155.755C191.371 155.438 189.817 155.48 188.267 155.523C187.493 155.544 186.719 155.565 185.951 155.541C185.612 155.521 185.625 155.736 185.637 155.947C185.64 155.987 185.642 156.026 185.642 156.064Z" fill="#E52129"/>
<g filter="url(#filter3_d_716_43)">
<rect x="26" y="326" width="247" height="247" rx="52" fill="#201A26"/>
</g>
<path d="M51.6033 439.342C52.9018 441.379 54.0984 443.365 55.4224 445.275C79.3045 479.825 111.232 503.172 151.816 514.425C159.964 516.691 168.238 518.194 176.64 519.186C187.614 520.51 198.613 520.79 209.612 520.23C223.564 519.517 237.338 517.455 250.934 514.273C251.011 514.247 251.087 514.273 251.214 514.349C250.323 514.731 249.458 515.138 248.567 515.52C247.675 515.902 246.759 516.284 245.868 516.64C232.756 521.885 219.211 525.628 205.258 527.919C194.539 529.676 183.769 530.491 172.923 530.084C136.591 528.811 106.013 515.062 81.6723 487.87C70.1641 475.012 61.2783 460.475 53.9966 444.893C53.1819 443.136 52.4181 441.379 51.6288 439.622C51.6033 439.597 51.6033 439.521 51.6033 439.342Z" fill="#FFE5E5"/>
<path d="M177.023 366.041C174.783 367.9 172.593 369.835 170.684 372.024C167.628 375.563 165.49 379.535 164.802 384.194C164.191 388.319 164.675 392.367 165.77 396.364C167.119 401.278 169.258 405.861 171.677 410.342C173.255 413.296 174.554 416.351 175.088 419.661C176.081 425.797 173.942 430.558 168.799 433.995C165.21 436.388 161.187 437.585 156.986 438.298C156.375 438.4 155.764 438.476 155.051 438.553C155.204 438.4 155.28 438.323 155.356 438.272C160.703 434.504 162.587 429.259 160.83 422.945C160.016 420.017 158.717 417.318 156.935 414.849C153.752 410.393 151.053 405.683 149.653 400.336C147.311 391.272 149.755 383.583 156.451 377.167C161.085 372.712 166.635 369.758 172.568 367.441C174.019 366.881 175.496 366.397 177.023 366.041Z" fill="#FFE5E5"/>
<path d="M147.641 438.756C148.38 437.61 148.965 436.413 149.169 435.038C149.526 432.874 148.965 430.939 147.794 429.157C146.75 427.527 145.426 426.178 143.848 425.083C141.607 423.505 139.494 421.799 137.763 419.66C135.446 416.834 133.969 413.677 134.071 409.96C134.122 408.127 134.555 406.344 135.293 404.664C137.406 399.775 141.047 396.186 145.299 393.079C144.968 393.665 144.637 394.225 144.306 394.811C140.538 401.354 141.073 407.566 145.681 413.499C147.412 415.739 149.424 417.751 151.511 419.66C153.014 421.035 154.363 422.588 155.28 424.421C156.782 427.4 156.629 430.303 154.745 433.052C152.937 435.649 150.442 437.381 147.641 438.756Z" fill="#FFE5E5"/>
<path d="M48.3971 453.421C51.6051 461.976 55.857 469.97 60.9236 477.558C78.8733 504.418 103.366 522.495 134.123 532.196C134.352 532.272 134.555 532.349 134.784 532.476C133.511 532.425 132.264 532.145 131.016 531.865C111.641 527.46 94.4042 518.829 79.6371 505.437C66.143 493.216 56.7226 478.296 50.6376 461.186C49.7465 458.666 48.9063 456.145 48.2188 453.574C48.1934 453.395 48.2698 453.37 48.3971 453.421Z" fill="#FFE5E5"/>
<path d="M48.3964 453.421C48.3455 453.472 48.2946 453.523 48.2437 453.574C47.9127 452.988 47.8617 452.301 47.709 451.664C48.0145 452.199 48.2437 452.784 48.3964 453.421Z" fill="#FFE5E5"/>
<path fill-rule="evenodd" clip-rule="evenodd" d="M184.584 447.387H142.39C128.337 447.387 114.26 447.387 100.208 447.438C99.6987 447.438 99.1894 447.438 98.7057 447.514C97.0253 447.769 96.236 448.685 96.236 450.366C96.236 457.826 96.236 465.26 96.2615 472.694C96.2615 476.335 96.8471 479.9 97.7891 483.413C97.891 483.846 98.1201 484.152 98.4765 484.406C114.669 496.551 132.492 505.462 151.944 511.114C152.351 511.216 152.707 511.267 153.115 511.191C156.246 510.605 159.327 509.841 162.332 508.823C162.651 508.712 162.971 508.602 163.291 508.492C165.829 507.62 168.368 506.748 170.606 505.233C176.182 501.414 180.459 496.373 183.769 490.517C184.049 490.008 184.355 489.829 184.94 489.829C186.735 489.868 188.514 489.863 190.301 489.858C190.898 489.856 191.496 489.855 192.095 489.855C192.545 489.847 192.992 489.851 193.438 489.854C194.507 489.863 195.567 489.871 196.627 489.728C206.047 488.404 212.183 479.518 210.045 470.25C208.542 463.783 202.941 458.818 196.321 458.131C194.763 457.958 193.192 457.985 191.626 458.012C190.89 458.025 190.154 458.037 189.422 458.029C188.861 458.029 188.734 457.876 188.734 457.316C188.751 455.756 188.745 454.206 188.74 452.653C188.737 451.875 188.734 451.096 188.734 450.315C188.734 449.042 188.199 448.227 187.003 447.743C186.214 447.438 185.399 447.387 184.584 447.387ZM188.709 464.649V469.639C188.912 473.586 188.378 478.067 186.85 482.446C186.672 482.981 186.85 483.057 187.334 483.057C188.381 483.046 189.424 483.049 190.467 483.052C191.856 483.056 193.244 483.061 194.641 483.031C199.478 482.93 203.527 479.289 203.959 474.731C204.443 469.665 201.388 465.336 196.474 464.318C194.844 463.978 193.18 464.024 191.52 464.069C190.691 464.092 189.862 464.114 189.04 464.089C188.676 464.067 188.69 464.298 188.703 464.523C188.706 464.566 188.709 464.608 188.709 464.649Z" fill="#E52129"/>
<defs>
<filter id="filter0_d_716_43" x="326" y="326" width="258" height="261" filterUnits="userSpaceOnUse" color-interpolation-filters="sRGB">
<feFlood flood-opacity="0" result="BackgroundImageFix"/>
<feColorMatrix in="SourceAlpha" type="matrix" values="0 0 0 0 0 0 0 0 0 0 0 0 0 0 0 0 0 0 127 0" result="hardAlpha"/>
<feOffset dx="7" dy="10"/>
<feGaussianBlur stdDeviation="2"/>
<feComposite in2="hardAlpha" operator="out"/>
<feColorMatrix type="matrix" values="0 0 0 0 0 0 0 0 0 0 0 0 0 0 0 0 0 0 0.25 0"/>
<feBlend mode="normal" in2="BackgroundImageFix" result="effect1_dropShadow_716_43"/>
<feBlend mode="normal" in="SourceGraphic" in2="effect1_dropShadow_716_43" result="shape"/>
</filter>
<filter id="filter1_d_716_43" x="326" y="28" width="258" height="261" filterUnits="userSpaceOnUse" color-interpolation-filters="sRGB">
<feFlood flood-opacity="0" result="BackgroundImageFix"/>
<feColorMatrix in="SourceAlpha" type="matrix" values="0 0 0 0 0 0 0 0 0 0 0 0 0 0 0 0 0 0 127 0" result="hardAlpha"/>
<feOffset dx="7" dy="10"/>
<feGaussianBlur stdDeviation="2"/>
<feComposite in2="hardAlpha" operator="out"/>
<feColorMatrix type="matrix" values="0 0 0 0 0 0 0 0 0 0 0 0 0 0 0 0 0 0 0.25 0"/>
<feBlend mode="normal" in2="BackgroundImageFix" result="effect1_dropShadow_716_43"/>
<feBlend mode="normal" in="SourceGraphic" in2="effect1_dropShadow_716_43" result="shape"/>
</filter>
<filter id="filter2_d_716_43" x="26" y="26" width="258" height="261" filterUnits="userSpaceOnUse" color-interpolation-filters="sRGB">
<feFlood flood-opacity="0" result="BackgroundImageFix"/>
<feColorMatrix in="SourceAlpha" type="matrix" values="0 0 0 0 0 0 0 0 0 0 0 0 0 0 0 0 0 0 127 0" result="hardAlpha"/>
<feOffset dx="7" dy="10"/>
<feGaussianBlur stdDeviation="2"/>
<feComposite in2="hardAlpha" operator="out"/>
<feColorMatrix type="matrix" values="0 0 0 0 0 0 0 0 0 0 0 0 0 0 0 0 0 0 0.25 0"/>
<feBlend mode="normal" in2="BackgroundImageFix" result="effect1_dropShadow_716_43"/>
<feBlend mode="normal" in="SourceGraphic" in2="effect1_dropShadow_716_43" result="shape"/>
</filter>
<filter id="filter3_d_716_43" x="26" y="326" width="258" height="261" filterUnits="userSpaceOnUse" color-interpolation-filters="sRGB">
<feFlood flood-opacity="0" result="BackgroundImageFix"/>
<feColorMatrix in="SourceAlpha" type="matrix" values="0 0 0 0 0 0 0 0 0 0 0 0 0 0 0 0 0 0 127 0" result="hardAlpha"/>
<feOffset dx="7" dy="10"/>
<feGaussianBlur stdDeviation="2"/>
<feComposite in2="hardAlpha" operator="out"/>
<feColorMatrix type="matrix" values="0 0 0 0 0 0 0 0 0 0 0 0 0 0 0 0 0 0 0.25 0"/>
<feBlend mode="normal" in2="BackgroundImageFix" result="effect1_dropShadow_716_43"/>
<feBlend mode="normal" in="SourceGraphic" in2="effect1_dropShadow_716_43" result="shape"/>
</filter>
</defs>
</svg>
